<svg width="879" height="435" viewBox="0 0 879 435" fill="none" xmlns="http://www.w3.org/2000/svg">
<path d="M877.9 130.04C877.59 129.8 874.72 127.24 873.65 126.1C872.58 124.96 872.23 124.96 872.47 124.16C872.71 123.36 872.85 122.98 872.26 122.6C871.67 122.22 871.6 121.32 871.19 120.35C870.78 119.38 871.74 119.38 872.37 119.38C873 119.38 873.27 119.24 873.37 118.83C873.47 118.42 873.51 117.55 873.78 116.69C874.06 115.83 873.99 115 873.99 115C873.99 115 870.05 108.29 869.88 107.84C869.71 107.39 870.5 107.15 870.81 107.01C871.12 106.87 871.64 106.46 871.5 106.18C871.36 105.9 869.46 104.07 869.15 103.86C868.84 103.65 867.46 103.48 866.8 103.03C866.14 102.58 866.83 102.03 867.15 101.65C867.46 101.27 866.87 100.79 866.22 100.68C865.56 100.58 863.14 100.78 862.49 100.51C861.83 100.23 861.38 99.27 860.69 98.47C860 97.67 860.55 97.19 860 96.78C859.45 96.37 858.96 96.47 858.31 95.74C857.65 95.01 857.41 91.83 857.48 91C857.55 90.17 856.3 90.03 855.34 90C854.37 89.97 850.12 90 849.12 90C848.12 90 844.8 89.62 842.97 89.14C841.14 88.66 840.55 89.14 839.93 88.45C839.31 87.76 839.1 87.31 838.44 87.31C837.78 87.31 836.5 87 836.19 86.34C835.88 85.68 834.43 85.75 833.49 85.79C832.56 85.82 832.66 86.45 832.42 87.17C832.18 87.9 830.31 88.41 829.48 88.45C828.65 88.48 826.47 88.38 825.47 88.04C824.47 87.69 822.12 87.9 820.84 87.87C819.56 87.84 819.87 87.11 819.87 86.07C819.87 85.03 819.07 84.65 818.14 84.34C817.21 84.03 816.72 83.79 816.48 82.85C816.24 81.92 815.72 82.37 814.54 81.99C813.36 81.61 814.16 81.19 814.19 79.92C814.22 78.64 812.88 78.64 812.05 78.16C811.22 77.68 811.01 76.64 810.94 75.95C810.87 75.26 809.14 73.82 808.78 73.2C808.42 72.58 807.07 72.68 805.98 72.68C804.89 72.68 804.74 72.01 804.27 70.86C803.8 69.72 803.39 70.39 801.68 70.08C799.97 69.77 800.49 69.15 799.76 68.58C799.03 68.01 797.06 65.73 796.13 64.38C795.2 63.03 793.55 57.24 794.11 55.41C794.66 53.58 796.18 52.06 796.39 50.95C796.6 49.84 795.25 50.92 793.94 51.23C792.63 51.54 785.33 54.72 784.71 54.93C784.09 55.14 783.08 55.83 782.67 55.73C782.26 55.63 782.5 53.79 782.05 53.72C781.6 53.65 779.39 53.55 778.28 53.1C777.17 52.65 776.79 53.24 775.76 53.65C774.72 54.06 774.58 53.72 773.75 53.24C772.92 52.76 771.36 51.93 770.15 51.61C768.94 51.3 768.56 51.64 767.73 51.4C766.9 51.16 764.48 49.71 763.2 49.6C761.92 49.5 760.33 49.18 758.74 48.49C757.15 47.8 756.84 48.32 755.87 48.77C754.9 49.22 754.69 49.5 753.42 49.15C752.14 48.8 751.83 47.39 750.86 46.28C749.89 45.17 749.55 45.1 748.47 45.55C747.4 46 747.23 45.76 746.81 44.82C746.4 43.89 746.53 43.99 745.67 43.99C744.81 43.99 743.42 43.4 743.25 42.47C743.08 41.54 742.52 41.5 741.73 41.19C740.93 40.88 740.73 40.5 740.35 39.95C739.97 39.4 739.45 40.05 739.04 40.36C738.63 40.67 738.49 40.6 737.38 40.71C736.27 40.81 736.2 41.54 735.27 42.16C734.34 42.78 733.61 42.47 732.47 42.23C731.33 41.99 731.23 41.3 730.57 41.09C729.91 40.88 729.81 42.02 729.64 42.82C729.47 43.62 729.16 44.72 728.22 44.86C727.29 45 724.8 44.65 723.9 44.55C723 44.45 720.48 43.06 720.08 42.96C719.68 42.86 719.44 42.49 718.87 42.49C718.3 42.49 717.99 43.01 717.71 43.41C717.43 43.81 717.21 43.44 716.78 42.74C716.35 42.03 715.78 42.07 715.64 42.12C715.5 42.17 714.67 42.83 714.72 43.14C714.77 43.45 714.72 44.04 714.44 44.28C714.16 44.52 713.23 44.44 712.61 44.44C711.99 44.44 710.59 44.87 710.14 44.39C709.69 43.91 709.03 44.01 708.77 44.18C708.51 44.35 708.16 44.96 707.8 45.34C707.44 45.72 707.28 45.62 706.5 45.62C705.72 45.62 705.15 45.81 704.51 45.41C703.87 45.01 702.92 43.93 702.73 43.84C702.54 43.75 700.94 43.24 700.27 43.27C699.6 43.3 700.18 43.76 700.06 44.1C699.94 44.44 699.49 44.32 699.02 44.7C698.55 45.08 698.05 45.62 697.5 45.53C696.96 45.44 696.68 45.26 695.94 44.87C695.2 44.48 695.85 43.96 695.82 43.55C695.79 43.14 695.21 42.36 694.93 41.96C694.64 41.56 694.54 42.02 694.2 42.58C693.86 43.14 693.56 42.98 692.94 42.93C692.32 42.88 690.87 41.87 690.79 41.63C690.71 41.4 689.88 41.14 689.49 41.14C689.1 41.14 687.8 41.43 687.31 41.76C686.82 42.1 686.77 41.99 686.04 41.99C685.31 41.99 685.37 41.6 685.39 40.85C685.41 40.1 685.08 39.86 684.59 39.68C684.1 39.5 683.19 38.41 682.49 38.33C681.79 38.25 681.71 38.72 681.37 39.32C681.03 39.92 680.36 39.42 679.53 39.58C678.7 39.74 678.62 39.37 678.36 39.06C678.1 38.75 677.04 39.4 676.62 39.71C676.21 40.02 675.76 39.55 675.35 39.24C674.94 38.93 673.7 38.39 673.46 38.43C673.22 38.46 672.86 38.88 672.39 38.79C671.92 38.7 671.89 38.22 671.27 38.01C670.65 37.8 669.45 38.29 668.78 38.49C668.11 38.7 667.24 38.54 666.76 38.2C666.28 37.85 666.21 37.58 665.71 37.34C665.21 37.1 665.57 36.53 665.45 36.16C665.33 35.8 664.53 35.8 664.14 35.85C663.74 35.9 661.44 36.75 661.11 36.85C660.77 36.95 659.35 37.5 658.88 37.45C658.41 37.4 658.49 36.65 658.44 36.02C658.39 35.4 657.87 35.86 657.45 36.23C657.04 36.59 655.97 37.11 655.43 37.24C654.89 37.37 654.73 37.19 653.8 37.19C652.87 37.19 650.42 38.93 650.01 39.17C649.6 39.41 648.73 40.28 648.11 40.21C647.49 40.14 646.59 39.31 645.83 38.72C645.07 38.13 644.03 38.51 644 39.07C643.97 39.62 643.31 39.59 642.44 39.14C641.58 38.69 639.64 38.83 638.29 38.76C636.94 38.69 638.26 37.96 638.19 37.34C638.12 36.72 637.22 37.06 636.5 36.68C635.77 36.3 635.7 35.75 634.84 35.16C633.98 34.57 633.15 35.3 632.59 35.13C632.04 34.96 632.76 34.23 632.87 33.47C632.97 32.71 632.35 32.05 631.87 32.05C631.39 32.05 630.52 32.33 629.52 32.12C628.52 31.91 626.02 31.62 625.4 31.7C624.78 31.78 625.27 32.3 625.24 32.76C625.21 33.23 624.2 34 623.66 34.52C623.12 35.04 623.19 34.83 622.8 34.42C622.41 34.01 621.66 33.75 621.32 32.94C620.98 32.13 620.75 31.36 620.36 30.87C619.97 30.38 619.01 30.77 618.31 31.08C617.61 31.39 617.12 31.34 616.37 30.98C615.62 30.62 615.62 31.01 615.28 31.55C614.94 32.09 614.61 32.64 614.17 32.92C613.73 33.21 612.98 32.82 612.84 32.78C612.7 32.75 612.04 32.28 611.34 32.07C610.63 31.86 610.44 32.45 609.85 31.97C609.26 31.49 608.54 30.95 608.17 30.64C607.81 30.33 607.67 30.9 607.46 31.44C607.25 31.98 607.04 32.64 606.7 32.75C606.36 32.85 606.08 33.84 605.79 34.28C605.5 34.72 604.57 34.77 604.03 34.75C603.49 34.72 603.87 33.87 603.62 33.64C603.36 33.41 602.61 33.93 601.99 34.16C601.37 34.39 600.67 34.73 600.2 35.53C599.73 36.33 600.3 36.57 600.33 37.03C600.36 37.5 600.17 37.76 599.29 38.12C598.41 38.48 597.86 38.95 597.29 39.42C596.72 39.89 596.2 39.76 594.77 39.37C593.34 38.98 592.7 38.85 591.76 38.98C590.83 39.11 590.67 39.29 590.02 39.01C589.37 38.72 588.54 38.65 588.05 38.85C587.56 39.06 585.69 39.14 585.48 39.14C585.27 39.14 583.77 38.65 583.04 38C582.31 37.35 581.3 37.61 580.89 37.64C580.48 37.67 580.03 38.94 579.88 39.64C579.72 40.34 578.97 41.43 578.53 41.79C578.09 42.15 577.88 41.95 576.79 41.56C575.7 41.17 575.04 41.49 575.02 41.85C575 42.21 574.12 42.78 573.41 42.78C572.7 42.78 571.35 43.14 570.32 43.42C569.28 43.7 569.01 43.87 568.07 44.25C567.14 44.63 566.76 44.39 566.51 43.97C566.27 43.56 565.75 43.73 564.88 43.14C564.02 42.55 564.43 42.21 563.95 41.2C563.47 40.2 564.5 40.37 564.88 39.68C565.26 38.99 564.57 39.06 563.98 39.02C563.39 38.99 561.32 37.98 560.21 37.88C559.1 37.78 558.17 38.12 557.58 38.36C556.99 38.6 556.34 38.29 556.2 37.53C556.06 36.77 555.09 37.01 554.16 37.12C553.23 37.22 547.52 37.78 546.42 37.88C545.31 37.98 543.14 38.92 542.48 38.81C541.82 38.71 541.75 37.67 540.99 37.25C540.23 36.84 537.64 36.84 536.77 36.63C535.91 36.42 536.53 35.56 536.39 34.9C536.25 34.24 535.39 34.07 534.76 34.07C534.14 34.07 532.96 34.42 532.37 34.87C531.78 35.32 530.57 35.73 529.43 35.73C528.29 35.73 526.87 36.01 526.18 36.32C525.49 36.63 524.49 38.39 524.17 39.36C523.86 40.33 522.6 46.62 522.39 47.19C522.18 47.76 520.83 47.97 519.69 48.59C518.55 49.21 518.08 50.98 517.77 51.18C517.46 51.39 516.37 50.97 515.59 50.61C514.81 50.25 513.1 50.45 512.53 50.51C511.96 50.56 509.11 49.68 508.02 49.06C506.93 48.44 505.48 47.5 503.77 47.76C502.06 48.02 502.32 48.02 500.55 47.09C498.79 46.16 499.25 46.78 498.32 46.99C497.39 47.2 497.18 47.77 496.56 47.77C495.94 47.77 494.69 47.1 493.09 46.63C491.48 46.16 488.37 46.22 487.54 45.8C486.71 45.39 484.01 44.56 482.98 44.4C481.94 44.24 478.81 45.25 478.33 45.25C477.85 45.25 477.4 44.7 476.91 44.45C476.43 44.21 475.91 44 475.91 43.45C475.91 42.9 475.81 42.76 475.15 42.59C474.49 42.42 473.21 42.59 472.45 42.49C471.69 42.39 470.48 41.63 469.41 40.9C468.34 40.17 467.23 39.27 466.23 38.83C465.23 38.38 464.88 38.03 464.22 37.93C463.56 37.83 462.91 38.1 462.21 37.79C461.52 37.48 459.93 36.13 459.17 35.61C458.41 35.09 457.99 35.71 457.65 35.71C457.31 35.71 453.19 32.63 452.74 32.32C452.29 32.01 449.73 30.04 448.9 29.45C448.07 28.86 445.72 29 445.27 29C444.82 29 444.68 29.48 444.34 29.48C443.99 29.48 443.37 29.17 442.54 29.17C441.71 29.17 442.13 29.79 441.16 29.93C440.19 30.07 439.43 29.62 438.43 28.65C437.43 27.68 436.91 27.09 436.77 25.95C436.63 24.81 436.08 25.12 435.35 25.09C434.62 25.06 434.14 25.02 433.28 23.98C432.42 22.94 429.68 20.35 429.27 19.76C428.85 19.17 426.5 15.97 426.35 15.14C426.19 14.31 424.69 14.21 423.55 14.1C422.41 14 421.32 13.43 420.7 12.8C420.08 12.18 419.25 12.13 418.68 12.39C418.11 12.65 417.59 12.96 417.02 12.39C416.45 11.82 413.13 10.68 412.72 9.69002C412.31 8.70002 411.68 8.39002 410.44 7.67002C409.2 6.94002 408.68 7.41002 408.11 6.32002C407.54 5.23002 406.24 5.80002 404.74 5.44002C403.24 5.08002 403.18 2.47002 403.01 2.16002C402.84 1.85002 402.25 2.19002 401.59 2.44002C400.93 2.68002 401 2.44002 400.66 2.20002C400.31 1.96002 400.11 1.75002 399.31 1.75002C398.51 1.75002 397.93 1.23002 397.58 0.610017C397.23 -0.009983 396.51 -0.049983 396.23 0.200017C395.95 0.440017 395.4 1.44002 395.37 1.86002C395.34 2.27002 396.34 2.76002 397.1 3.21002C397.86 3.66002 397.58 5.11002 397.55 5.80002C397.52 6.49002 397.34 7.43002 396.58 7.98002C395.82 8.53002 395.58 8.08002 394.61 7.63002C393.64 7.18002 392.47 7.73002 391.15 7.77002C389.84 7.80002 386.21 8.57002 385.86 8.77002C385.51 8.98002 383.99 10.36 383.47 9.98002C382.95 9.60002 378.66 5.59002 378.21 4.83002C377.76 4.07002 377.59 4.66002 376.72 5.11002C375.86 5.56002 376.51 5.94002 376.72 6.29002C376.93 6.64002 377.07 7.57002 376.82 8.33002C376.58 9.09002 376.44 9.33002 376.41 9.82002C376.38 10.3 375.99 11.34 375.75 11.79C375.51 12.24 374.23 13.31 373.92 13.73C373.61 14.14 373.02 15.77 372.92 16.57C372.82 17.37 372.54 17.02 371.23 16.81C369.92 16.6 368.46 16.57 367.32 16.33C366.18 16.09 366.73 15.47 366.08 15.19C365.42 14.91 364.45 16.64 363.83 17.06C363.21 17.47 361.38 17.47 361.1 17.54C360.82 17.61 354.04 21.73 354.04 21.73C354.04 21.73 347.22 24.87 346.44 25.15C345.66 25.44 343.51 26.97 343.2 27.41C342.89 27.85 343.17 28.86 343.33 29.25C343.49 29.64 343.64 30.96 343.64 31.92C343.64 32.88 343.38 33.84 343.15 34.15C342.92 34.46 341 36.69 341 36.69C341 36.69 340.27 37.3 340.29 37.66C340.31 38.02 340.31 39.29 340.01 39.63C339.72 39.98 339.7 40.34 340.04 40.96C340.39 41.58 341.35 46.05 341.35 46.57C341.35 47.09 341.38 49.22 341.04 50.8C340.7 52.38 339.9 54.69 340.18 55.78C340.47 56.87 338.52 57.41 337.72 57.85C336.92 58.29 336.92 60.75 336.37 61.97C335.83 63.19 336.01 64.95 335.8 65.68C335.59 66.41 334.09 68.04 333.96 68.25C333.83 68.46 333.8 71.93 334.14 72.63C334.48 73.33 334.09 74.99 333.54 75.72C333 76.45 333.67 76.89 334.03 77.22C334.39 77.56 334.44 79.06 334.7 79.84C334.96 80.62 335.74 82.87 335.76 83C335.79 83.13 337.52 85.54 337.63 86.11C337.73 86.68 338.51 87.51 339.57 88.21C340.63 88.91 341.18 90.1 341.36 90.98C341.54 91.86 341.36 92.15 340.89 92.2C340.42 92.25 339.46 92.72 339 93.03C338.53 93.34 338.04 93.52 337.47 93.21C336.9 92.9 335.81 92.25 335.63 91.99C335.45 91.73 334.13 91.76 333.17 91.76C332.21 91.76 331.02 91.76 329.59 91.97C328.16 92.18 327.77 91.79 327.15 91.37C326.53 90.96 326.68 90.36 326.09 90.07C325.49 89.78 324.61 89.21 324.51 88.9C324.41 88.59 324.46 86.88 324.46 86.23C324.46 85.58 324.77 84.05 324.72 83.12C324.67 82.19 323.5 82.34 322.7 82.47C321.9 82.6 321.35 82.06 320.47 81.67C319.59 81.28 318.89 80.61 318.29 81.1C317.69 81.59 317.8 81.72 317.17 81.46C316.55 81.2 314.84 80.86 313.59 80.47C312.35 80.08 310.29 79.65 310.18 79.65C310.08 79.65 306.96 78.82 305.69 79.24C304.41 79.65 303.06 79.31 301.44 79.76C299.81 80.21 298.71 80.35 297.36 79.97C296.01 79.59 294.42 80 293.56 80C292.7 80 291.28 78.93 290.55 77.89C289.82 76.85 289.17 77.37 288.82 77.51C288.47 77.65 286.99 77.65 286.26 77.3C285.53 76.95 284.91 75.99 284.46 75.26C284.01 74.53 282.49 72.39 282.04 71.91C281.59 71.43 279.88 68.47 279.46 67.8C279.04 67.13 278.22 67.7 277.07 67.54C275.93 67.38 274.11 66.61 273.34 66.14C272.56 65.67 272.72 64.9 272.1 64.95C271.48 65 269.25 64.12 267.74 63.5C266.24 62.88 265.56 63.29 264.89 63.86C264.22 64.43 263.39 64.27 262.3 64.27C261.21 64.27 261.94 64.79 261.06 65.26C260.18 65.73 259.61 64.33 258.83 63.19C258.05 62.05 257.07 61.74 255.41 61.37C253.75 61 254.32 60.75 254.11 59.92C253.9 59.09 253.07 59.61 252.09 59.35C251.1 59.09 249.76 58.21 249.24 57.64C248.72 57.07 244.12 55.67 243.78 55.5C243.43 55.33 242.6 55.5 241.74 55.78C240.88 56.06 241.15 55.5 241.05 55.09C240.95 54.68 240.39 54.33 239.94 54.5C239.49 54.67 239.28 55.12 238.76 55.16C238.24 55.19 237.41 55.23 237.13 55.44C236.85 55.65 236.85 56.3 235.85 56.62C234.85 56.93 235.02 55.72 234.57 55.34C234.12 54.96 233.19 56.38 232.46 57.24C231.73 58.1 230.97 57.79 230.28 57.41C229.59 57.03 228.48 57.1 227.93 57.17C227.38 57.24 225.72 54.37 225.34 53.57C224.96 52.77 221.74 53.26 220.26 53.26C218.77 53.26 218.29 51.95 218.01 51.5C217.73 51.05 217.49 50.46 216.94 50.67C216.39 50.88 216.01 50.84 215.63 50.39C215.25 49.94 213.45 48.94 212.62 48.66C211.79 48.38 211.62 48.94 211.24 48.8C210.86 48.66 211.21 47.9 211 47.52C210.79 47.14 208.93 47.55 208.13 47.49C207.33 47.42 207.4 47.01 206.57 46.87C205.74 46.73 201.78 49 201.57 49.1C201.36 49.2 198.15 49.77 196.8 49.72C195.45 49.67 195.92 49.1 194.98 49.15C194.04 49.2 191.3 51.33 190.31 52.52C189.32 53.71 188.65 53.82 187.61 53.51C186.57 53.2 187.61 52.99 186.78 52.58C185.95 52.17 186.11 53.36 185.64 52.89C185.17 52.42 184.24 51.65 184.03 51.13C183.82 50.61 182.73 50.87 180.66 51.7C178.59 52.53 177.96 52.48 177.03 52.48C176.1 52.48 174.8 52.01 174.07 51.7C173.34 51.39 171.06 51.54 170.8 51.65C170.54 51.75 169.71 53.1 169.56 53.36C169.4 53.62 169.66 54.81 169.51 55.23C169.35 55.64 168.32 54.97 167.33 54.87C166.34 54.77 166.5 55.91 166.19 56.06C165.88 56.22 162.14 53.99 161.06 54.09C159.97 54.19 161.42 55.33 161.63 56.27C161.84 57.2 161.27 58.19 160.85 59.02C160.44 59.85 158.46 62.44 157.58 63.27C156.7 64.1 155.25 64.41 154.21 64.83C153.17 65.24 154.52 65.3 154.83 66.02C155.14 66.75 154.83 70.38 154.73 71.05C154.63 71.72 153.64 73.85 153.12 74.42C152.6 74.99 152.65 74.11 152.65 73.23C152.65 72.35 151.98 72.61 151.56 72.61C151.14 72.61 147.93 72.56 146.74 72.3C145.55 72.04 142.23 73.29 140.98 73.75C139.74 74.22 140.1 73.85 139.99 74.32C139.89 74.79 140.04 76.97 140.35 77.54C140.66 78.11 142.68 79.46 143.31 80.44C143.93 81.43 145.8 82.36 146.53 83.6C147.26 84.84 147.36 85.52 146.94 85.73C146.53 85.94 145.95 86.61 145.59 86.61C145.23 86.61 141.44 85.62 140.09 84.59C138.74 83.55 138.53 84.18 138.53 84.54C138.53 84.9 136.66 90.5 136.66 90.5C136.66 90.5 136.14 91.28 135.42 91.9C134.69 92.52 134.95 92.57 135.52 93.3C136.09 94.03 136.4 94.18 136.51 94.7C136.61 95.22 135.21 95.48 135.01 95.69C134.8 95.9 132.62 98.33 131.38 98.54C130.14 98.75 130.65 99.73 130.76 100.77C130.86 101.81 130.76 102.79 130.45 103.57C130.14 104.35 129.26 105.18 129.26 105.64C129.26 106.11 130.56 106.63 131.44 107.4C132.32 108.18 131.23 108.54 130.4 108.9C129.57 109.26 129.99 109.31 130.87 109.52C131.75 109.73 132.79 109.78 133.26 109.31C133.73 108.84 134.95 109.18 134.95 109.18C134.95 109.18 136.22 109.78 136.82 110.14C137.42 110.5 138.95 110.27 139.88 109.88C140.81 109.49 140.17 108.35 140.29 107.49C140.42 106.63 141.3 107.31 141.43 106.82C141.56 106.33 141.77 106.12 142.52 105.86C143.27 105.6 144.26 105.86 144.88 105.86C145.5 105.86 146.23 106.85 146.98 107.36C147.73 107.88 148.59 107.7 149.11 107.28C149.63 106.87 149.91 106.76 150.3 106.87C150.69 106.97 151.26 108.19 151.7 108.81C152.14 109.43 154.84 111.14 155.08 111.17C155.32 111.2 156.01 111.69 156.39 112.17C156.77 112.65 156.67 113.41 157.12 113.52C157.57 113.62 158.16 113 158.33 112.62C158.5 112.24 159.85 113.86 160.16 114.69C160.47 115.52 160.99 115.14 161.16 115.66C161.33 116.18 160.88 117.15 160.4 117.77C159.92 118.39 160.43 118.63 160.71 119.33C160.99 120.02 160.3 119.99 159.53 120.37C158.77 120.75 158.35 121.3 157.7 121.79C157.04 122.27 157.63 122.24 157.22 122.86C156.81 123.48 156.22 122.65 155.49 122.17C154.76 121.69 153.73 122.14 153.21 122.55C152.69 122.96 152.69 123.07 152.07 123.21C151.45 123.35 151.31 123.04 151.07 123.21C150.83 123.38 150.45 125.11 150.1 125.25C149.75 125.39 148.47 125.25 148.2 125.77C147.92 126.29 147.72 126.95 147.37 127.19C147.02 127.43 143.98 128.85 143.74 129.09C143.5 129.33 143.43 130.23 142.5 130.54C141.57 130.85 140.98 130.85 140.63 131.34C140.28 131.82 140.39 132.41 139.9 133.31C139.42 134.21 137.93 133.69 136.89 133.97C135.85 134.25 134.09 133.87 132.67 133.35C131.25 132.83 131.81 132.35 130.84 132.38C129.87 132.41 129.15 132 128.77 131.79C128.39 131.58 128.32 133.76 128.32 134.42C128.32 135.08 127.35 137.01 127.11 137.6C126.87 138.19 127.39 138.36 127.94 138.84C128.49 139.32 128.18 140.19 127.77 141.12C127.36 142.05 128.18 142.12 128.57 142.68C128.95 143.23 128.22 143.61 127.98 144.13C127.74 144.65 127.63 145.41 126.7 145.55C125.77 145.69 125.52 145.72 124.94 146.03C124.35 146.34 124.28 146.03 123.66 145.44C123.04 144.85 122.31 145.3 121.52 144.51C120.73 143.72 120.48 144.37 120.17 145.1C119.86 145.83 120.17 146.48 119.79 146.9C119.41 147.31 118.89 146.76 118.16 146.28C117.43 145.8 115.36 146.35 114.15 147.08C112.94 147.81 111.04 151.37 110.62 152.44C110.21 153.51 109.86 153.03 109.06 153.03C108.26 153.03 107.71 153.93 107.64 154.86C107.57 155.79 107.74 156.93 107.23 157C106.71 157.07 106.19 157.55 105.85 157.86C105.5 158.17 102.36 159.28 101.36 159.8C100.36 160.32 100.5 162.19 100.5 163.29C100.5 164.39 99.7997 166.96 99.6397 167.2C99.4797 167.43 98.0597 167.28 97.4397 167.28C96.8197 167.28 96.6097 168.03 96.0897 169.02C95.5697 170.01 94.7397 170.14 93.4997 170.42C92.2597 170.71 90.8597 171.72 90.2597 172.78C89.6597 173.84 89.4297 175.74 88.0797 176.23C86.7297 176.72 85.9297 176.39 84.8097 176.93C83.6897 177.47 81.6997 179.68 81.1497 179.81C80.6097 179.94 79.9797 178.8 79.1297 178.75C78.2697 178.7 77.5497 179.14 76.6397 179.22C75.7297 179.3 76.0697 179.71 76.2997 180.23C76.5297 180.75 76.9497 182.69 76.1997 183.39C75.4497 184.09 74.7697 184.3 74.3597 184.87C73.9497 185.44 74.7197 185.8 74.6997 186.5C74.6697 187.2 74.6197 188.19 73.7697 188.55C72.9097 188.91 73.1697 189.09 73.3297 189.43C73.4897 189.77 75.1697 190.34 76.1297 190.44C77.0897 190.54 76.9897 191.09 77.3497 191.61C77.7097 192.13 78.3597 191.95 79.0897 192C79.8197 192.05 80.6697 192.03 81.2197 191.97C81.7597 191.92 81.7097 190.88 82.3397 189.84C82.9597 188.8 83.1397 189.04 83.7397 189.06C84.3397 189.09 84.8597 189.97 85.2197 190.82C85.5797 191.68 86.7197 191.73 87.2897 191.96C87.8597 192.19 88.1697 191.96 88.7897 191.96C89.4097 191.96 89.8997 194.03 90.0097 194.29C90.1097 194.55 90.2697 194.89 90.8697 194.6C91.4697 194.31 91.7297 194.31 92.0897 194.47C92.4497 194.63 92.4797 194.94 92.6297 195.56C92.7897 196.18 93.2997 196 94.0797 196.55C94.8597 197.09 96.0797 198.16 96.7497 198.68C97.4197 199.2 97.1597 199.72 97.0597 200.21C96.9597 200.7 97.9697 201.66 98.3797 202.1C98.7997 202.54 99.3697 202.2 99.5997 201.87C99.8297 201.53 100.56 201.84 100.92 201.92C101.28 202 101.54 201.61 101.65 201.32C101.75 201.03 103.21 200.85 103.72 200.7C104.24 200.54 104.11 200.21 104.13 199.58C104.16 198.96 104.67 199.17 105.19 198.72C105.71 198.28 105.5 197.76 105.63 197.09C105.76 196.42 106.28 196.99 106.74 196.96C107.21 196.93 107.15 196.31 107.23 195.82C107.31 195.33 107.85 195.92 108.01 196.05C108.17 196.18 108.68 196.1 108.92 195.58C109.15 195.06 109.8 195.71 110.94 195.84C112.08 195.97 112.63 194.7 113.27 194.26C113.92 193.82 114.49 193.92 114.7 194.08C114.91 194.24 115.56 194.52 115.87 194.42C116.18 194.32 116.91 194.39 117.11 194.73C117.32 195.07 117.08 196.13 117.11 196.62C117.14 197.11 117.78 197.14 118.2 197.74C118.61 198.34 118.87 198.98 119.44 199.32C120.01 199.66 120.11 200.54 120.45 201.21C120.79 201.88 121.49 202.14 122.06 202.97C122.63 203.8 121.8 203.9 121.77 204.79C121.74 205.67 122.5 206.71 122.78 206.99C123.06 207.27 122.5 207.79 122.02 208.13C121.54 208.48 122.16 208.93 122.47 209.51C122.78 210.1 122.37 210.48 121.95 211.1C121.54 211.72 121.6 212.55 121.92 213.49C122.23 214.42 121.95 214.8 121.57 215.5C121.19 216.19 121.36 216.36 121.57 217.06C121.78 217.75 122.47 220.9 122.12 221.69C121.77 222.49 122.33 223.42 122.67 223.25C123.02 223.08 123.33 222.04 123.57 221.07C123.81 220.1 123.92 220.45 124.16 220.17C124.4 219.89 125.54 219.17 125.92 218.58C126.3 217.99 126.72 217.96 127.68 217.78C128.65 217.61 129.2 218.47 129.65 219.2C130.1 219.93 130.76 221.24 131.07 221.24C131.38 221.24 134.04 224.14 134.46 224.42C134.87 224.7 135.26 225.42 135.39 226.05C135.53 226.67 136.12 226.78 136.7 226.95C137.29 227.12 138.26 226.29 138.84 225.81C139.43 225.33 141.33 224.63 142.06 224.18C142.79 223.73 143.24 224.32 143.48 224.7C143.72 225.08 144.24 225.43 144.83 225.67C145.42 225.91 146.11 226.6 147.01 227.16C147.91 227.71 148.6 229.2 149.08 229.2C149.56 229.2 150.46 228.85 150.88 228.3C151.29 227.75 151.61 226.36 151.88 225.71C152.16 225.05 152.68 225.47 153.44 225.47C154.2 225.47 154.17 224.64 154.48 224.12C154.79 223.6 156.45 224.12 156.55 224.33C156.65 224.54 157.73 225.33 158.04 225.33C158.35 225.33 158.32 224.33 158.45 223.88C158.59 223.43 159.21 224.02 160.18 224.99C161.15 225.96 161.42 225.27 161.98 225.4C162.53 225.54 162.01 229.2 162.12 229.83C162.22 230.45 162.64 229.76 163.02 229.73C163.4 229.7 163.4 230.56 163.85 230.97C164.3 231.38 164.13 231 164.61 230.28C165.09 229.55 165.61 227.72 166.17 226.79C166.72 225.86 167.38 226.34 168.07 226.13C168.76 225.92 169.66 226.03 170.28 226.93C170.9 227.83 170.63 229.59 170.73 230.35C170.83 231.11 171.18 231.18 171.53 232.11C171.88 233.04 172.46 232.46 172.88 232.04C173.29 231.63 175.82 228.58 175.85 227.93C175.88 227.27 174.64 225.96 174.43 225.54C174.22 225.13 174.64 224.26 175.19 223.64C175.74 223.02 176.71 222.46 176.92 222.05C177.13 221.64 176.68 221.25 175.74 220.53C174.81 219.8 174.56 219.04 174.5 218.21C174.43 217.38 174.91 217.07 175.36 216.27C175.81 215.47 174.74 215.13 174.32 214.71C173.91 214.3 174.42 214.23 175.05 213.19C175.67 212.15 176.29 211.84 177.23 211.53C178.16 211.22 178.47 212.74 179.13 212.95C179.79 213.16 180.13 212.6 180.82 212.09C181.51 211.57 181.72 212.02 181.65 212.61C181.58 213.2 182 213.13 182.96 212.96C183.93 212.79 184.14 213.31 184.38 213.48C184.62 213.65 188.14 210.16 188.56 209.69C188.97 209.22 189.03 207.98 189.21 207.46C189.39 206.94 189.86 207.51 189.96 207.98C190.06 208.45 190.32 208.71 190.45 208.45C190.58 208.19 192.71 204.4 193.07 203.91C193.43 203.42 192.14 202.98 191.83 202.38C191.52 201.78 192.35 201.81 192.74 201.45C193.13 201.09 193.44 199.61 193.6 198.23C193.76 196.86 193.37 196.41 192.82 195.09C192.28 193.77 191.76 193.74 191.03 193.77C190.3 193.8 189.86 194.63 189.45 194.68C189.04 194.73 188.33 193.95 188.41 193.72C188.49 193.49 188.9 192.84 189.73 192.45C190.56 192.06 191.31 192.45 191.93 192.45C192.55 192.45 192.89 192.24 193.23 191.54C193.57 190.84 193.33 189.78 193.7 188.89C194.06 188.01 194.32 188.48 195.13 188.09C195.93 187.7 196.17 187.29 196.5 186.48C196.84 185.68 197.28 185.96 197.54 186.3C197.8 186.64 198.42 186.92 198.94 187.36C199.46 187.8 198.63 188.19 198.16 188.5C197.69 188.81 197.38 188.97 197.51 189.41C197.64 189.85 198.44 189.18 199.22 189.31C200 189.44 199.53 190.11 198.83 190.4C198.13 190.69 198.29 190.66 198.03 191.18C197.77 191.7 198.03 192.3 198.57 193.15C199.11 194.01 199.11 193.1 199.4 192.89C199.69 192.68 200.33 193.18 200.44 193.49C200.54 193.8 201.3 195.5 201.36 195.85C201.43 196.2 203.05 197.54 203.02 198.51C202.99 199.48 202.19 199.44 201.6 199.93C201.01 200.41 202.08 200.62 202.74 200.97C203.4 201.32 205.02 202.53 205.64 203.08C206.26 203.63 206.57 204.77 206.57 205.81C206.57 206.85 206.88 206.99 207.5 207.02C208.12 207.05 209.19 206.61 209.68 205.95C210.16 205.29 210.72 206.3 211.2 206.88C211.68 207.47 211.75 208.02 211.2 208.44C210.65 208.85 210.61 209.62 210.79 210C210.96 210.38 212.46 212.79 212.46 212.79C212.46 212.79 212.28 215.38 212.02 216.08C211.76 216.78 211.55 217.95 211.53 218.13C211.5 218.31 212.41 220 212.31 220.46C212.21 220.93 211.27 221.52 210.86 222.17C210.45 222.82 211.02 223.44 211.02 224.17C211.02 224.9 210.79 225.57 210.5 225.93C210.21 226.29 210.68 226.86 211.12 226.99C211.56 227.12 213.77 227.76 214.03 227.97C214.29 228.18 215.38 228.73 215.71 228.85C216.04 228.97 216.32 228.3 216.54 227.95C216.76 227.6 218.13 227.62 218.79 227.54C219.45 227.45 220.1 227.97 220.48 228.58C220.86 229.19 221.76 229.74 222.05 229.93C222.34 230.12 224.82 231.17 225.56 231.14C226.3 231.11 226.49 230.83 227.08 230C227.67 229.17 228.24 228.57 228.69 228.22C229.14 227.87 230.35 227.86 231.04 227.63C231.73 227.41 233.24 227.06 233.81 227.06C234.38 227.06 235.04 227.49 235.04 227.68C235.04 227.87 234.97 233 234.97 233L236.15 237.6C236.15 237.6 236.75 239.39 236.75 240.35C236.75 241.31 236.31 241.15 235.76 241.31C235.22 241.47 234.9 242.17 234.88 242.79C234.85 243.41 234.49 243.59 233.92 243.49C233.35 243.39 232.65 243.13 232.08 243.26C231.51 243.39 233.14 244.69 233.56 245.33C233.97 245.98 234.29 245.51 234.7 245.04C235.11 244.57 238.75 244.32 239.85 243.98C240.96 243.63 241.79 242.6 242.27 241.97C242.75 241.35 243.72 241.49 244.55 241.31C245.38 241.14 245.35 240.86 245.41 240.27C245.48 239.68 246.69 239.03 247.42 238.4C248.15 237.78 248.77 239.3 249.39 239.92C250.01 240.54 251.64 241.44 252.5 241.55C253.36 241.65 253.74 240.96 254.37 240.75C254.99 240.54 257.38 242.96 257.72 243.17C258.07 243.38 258.69 243.52 259.45 243.55C260.21 243.58 259.8 245.04 259.62 245.62C259.45 246.21 259.48 246.59 258.96 246.9C258.44 247.21 259.24 247.94 259.55 247.94C259.86 247.94 260.45 247.53 261.18 246.97C261.91 246.42 261.59 246.94 261.77 247.45C261.94 247.97 262.08 248.04 262.98 248C263.88 247.97 263.46 248.17 263.81 248.83C264.16 249.49 264.81 250.42 265.61 251.15C266.41 251.88 266.75 253.6 267.1 254.64C267.45 255.68 266.13 256.61 265.51 257.3C264.89 257.99 265.99 258.1 266.82 258.3C267.65 258.51 270.12 259.3 270.54 259.59C270.96 259.88 272.51 260.24 273.19 259.98C273.86 259.72 274.88 259.46 276.28 259.59C277.68 259.72 278.59 260.32 279.05 260.42C279.52 260.52 285.26 260.24 285.98 259.96C286.71 259.68 287.92 258.54 288.47 258.44C289.02 258.34 290.44 260 290.51 260.51C290.58 261.03 290.86 262.58 291.62 263.14C292.38 263.69 292.21 264.32 292.52 264.9C292.83 265.49 294.11 265.63 295.08 265.59C296.05 265.56 296.46 264.59 297.36 263.83C298.26 263.07 301.09 261.13 301.75 260.68C302.41 260.23 302.82 260.02 303.34 260.68C303.86 261.34 304.1 261.75 304.72 261.79C305.34 261.82 306.83 261.06 307.73 260.79C308.63 260.51 310.01 261.1 310.67 261.1C311.33 261.1 311.91 261.48 312.12 262C312.33 262.52 311.81 263.94 311.19 264.49C310.57 265.04 310.88 266.43 310.57 267.26C310.26 268.09 309.71 267.61 309.15 267.78C308.6 267.95 308.22 268.92 307.21 268.85C306.21 268.78 305.17 268.88 304.2 269.23C303.23 269.58 301.88 269.06 300.6 269.06C299.32 269.06 299.01 269.2 298.11 269.96C297.21 270.72 293.64 273.26 293.23 273.5C292.82 273.73 291.44 274.69 290.04 274.69C288.64 274.69 288.67 275.16 288.51 275.86C288.35 276.56 288.15 277.49 287.97 277.91C287.79 278.32 287.66 279.1 286.62 279.08C285.58 279.05 282.63 278.61 281.51 278.59C280.4 278.56 280.78 278.8 280.63 279.47C280.47 280.14 281.33 280.66 281.33 280.66C281.33 280.66 282.16 281.28 282.6 281.75C283.04 282.22 282.39 282.84 281.38 283.49C280.37 284.14 280.06 284.99 279.93 285.85C279.8 286.71 280.29 288.7 280.53 289.58C280.76 290.46 280.24 289.99 279.91 289.61C279.57 289.22 278.72 288.6 278.35 288.31C277.99 288.02 277.52 288.26 277.23 288.75C276.94 289.24 276.3 289.32 276.06 288.96C275.83 288.6 275.65 287.33 275.46 286.99C275.28 286.65 274.24 287.51 273.07 287.87C271.9 288.23 272.86 288.39 273.25 288.8C273.64 289.21 273.56 289.94 273.3 290.54C273.04 291.14 273.95 291.73 274.18 292.33C274.41 292.93 273.12 295.68 272.57 295.93C272.03 296.19 269.83 295.76 269.69 295.76C269.55 295.76 268.81 295.66 268.1 295.17C267.39 294.69 266.84 293.58 266.34 293.1C265.84 292.62 265.53 293.31 264.77 293.69C264.01 294.07 264.25 293.59 263.56 293.19C262.87 292.79 261.74 292.79 261.04 292.34C260.33 291.89 260.24 290.73 259.9 290.04C259.55 289.35 259.16 290.13 258.72 290.84C258.29 291.55 258.13 291.76 257.75 291.7C257.37 291.65 255.65 289.63 255.37 289.05C255.08 288.47 254.85 287.66 254.22 286.92C253.58 286.18 253.07 285.01 252.7 284.96C252.34 284.91 251.69 285.23 250.85 285.35C250.01 285.47 250.21 286.12 250.08 286.56C249.95 287 249.29 286.53 248.41 286.15C247.53 285.76 247.53 286.55 247.75 286.76C247.97 286.97 249.38 288.61 249.73 288.76C250.08 288.9 251.16 289.69 251.53 290.28C251.91 290.86 252.32 290.68 252.8 290.81C253.28 290.94 253.22 292.35 253.22 292.35C253.22 292.35 254.02 293.04 253.57 293.32C253.12 293.6 253.07 294.01 252.33 294.15C251.59 294.29 251.6 294.39 250.7 294.76C249.8 295.12 250.16 295.64 250.25 296.04C250.34 296.44 250.98 296.58 251.67 296.58C252.36 296.58 252.57 296.3 253.24 296.44C253.91 296.58 253.6 297.41 253.43 298.05C253.26 298.69 253.48 298.91 253.83 298.91C254.18 298.91 254.21 298.91 254.57 299.26C254.93 299.61 254.64 300.64 254.79 300.89C254.95 301.13 254.63 301.67 254.27 301.81C253.91 301.95 253.35 302.64 253.15 303.24C252.94 303.84 252.22 305.25 252.16 305.75C252.11 306.25 253.02 307.31 253.28 308.08C253.54 308.86 253.04 308.39 252.16 308.05C251.28 307.7 250.12 307.67 249.55 307.51C248.98 307.35 247.7 305.58 247.49 305.27C247.28 304.96 245.8 303.69 245.26 303.07C244.72 302.45 243.99 303.48 243.16 304.03C242.33 304.57 242.02 304.29 241.55 303.77C241.08 303.25 241.16 302.76 240.62 302.03C240.08 301.3 239.53 301.64 239.43 300.94C239.33 300.24 239.87 300.01 240.13 299.59C240.39 299.18 239.43 299.2 238.52 298.94C237.61 298.68 236.16 299.04 235.62 299.23C235.08 299.41 234.95 298.89 234.79 298.11C234.63 297.33 233.75 297.72 233.65 297.77C233.55 297.82 233.44 299.48 233.39 299.56C233.34 299.64 233.26 300.29 232.82 300.93C232.38 301.58 231.86 302.07 231.29 302.12C230.72 302.17 230.33 302.35 229.76 302.77C229.19 303.19 228.52 303.19 227.87 302.87C227.22 302.56 226.75 301.7 226.55 301.81C226.34 301.91 226.26 303.05 226.47 303.55C226.68 304.04 226.99 304.43 226.96 305.16C226.93 305.89 226.39 306.48 225.9 306.77C225.41 307.06 225.56 307.29 225.56 307.99C225.56 308.69 225.35 309.65 224.86 309.86C224.37 310.07 224.19 310.2 223.9 310.53C223.61 310.87 218.09 315.51 217.96 315.59C217.83 315.67 216.53 316.29 216.69 316.68C216.85 317.07 218.3 317.95 219.36 318.24C220.42 318.53 222.94 319.15 223.59 319.28C224.24 319.41 224.58 320.37 224.37 320.84C224.16 321.31 222.38 321.21 222.31 321.56C222.24 321.91 221.65 321.94 221.03 321.28C220.41 320.62 219.4 321.28 218.85 321.52C218.3 321.76 217.85 323.59 217.43 324.32C217.02 325.05 215.11 325.43 214.66 324.84C214.21 324.25 213.73 322.87 212.97 322.87C212.21 322.87 211.41 322.66 210.45 322.04C209.48 321.42 208.79 322.28 207.44 323.15C206.09 324.01 206.75 324.36 207.75 324.84C208.75 325.32 209.38 326.88 209.44 327.68C209.51 328.48 205.78 328.54 205.39 328.79C205.01 329.03 204.59 329.55 203.45 329.97C202.31 330.39 201.13 331.01 199.58 331.77C198.02 332.53 198.78 333.26 198.72 334.05C198.65 334.85 197.79 334.15 197.72 333.57C197.65 332.98 197.55 332.39 197.44 331.43C197.34 330.46 195.5 330.88 194.16 330.29C192.81 329.7 193.16 329.29 192.53 329.18C191.91 329.08 192.22 328.18 192.77 328.28C193.32 328.38 194.19 329.46 194.64 329.46C195.09 329.46 195.5 329.29 195.5 328.7C195.5 328.11 196.54 328.22 196.68 327.9C196.82 327.59 195.82 327.21 195.3 326.52C194.78 325.83 195.51 325.45 195.96 324.79C196.41 324.13 195.34 323.65 194.61 322.68C193.88 321.71 194.54 321.82 194.13 321.64C193.72 321.47 190.4 322.09 189.91 322.26C189.43 322.43 189.5 323.19 189.6 324.61C189.7 326.03 189.81 326.82 189.77 327.51C189.74 328.2 189.11 328.41 188.32 327.58C187.52 326.75 186.87 326.85 184.86 326.75C182.85 326.65 182.16 326.23 181.16 325.37C180.16 324.51 181.02 323.71 180.85 322.36C180.68 321.01 180.09 320.98 179.54 320.84C178.99 320.7 177.02 320.91 175.77 320.53C174.53 320.15 173.59 320.05 172.87 319.32C172.14 318.59 171.57 318.02 169.91 317.97C168.25 317.92 169.29 317.55 169.81 317.19C170.33 316.83 169.24 316.72 168.05 316.72C166.86 316.72 166.13 316.51 165.51 316.72C164.89 316.93 164.99 317.08 164.21 316.88C163.43 316.67 163.48 314.86 163.59 314.65C163.69 314.44 162.45 313.77 161.77 314.24C161.1 314.71 160.27 315.69 159.64 315.9C159.02 316.11 159.07 315.38 158.81 314.08C158.55 312.78 156.42 313.61 155.23 313.61C154.04 313.61 152.64 314.54 152.64 314.54C152.64 314.54 150.98 314.8 149.84 314.85C148.7 314.9 146.87 317.96 146.49 318.45C146.11 318.93 144.97 319.38 143.62 319.94C142.27 320.49 142.24 320.32 141.41 319.91C140.58 319.49 140.3 319.74 139.51 320.19C138.71 320.64 138.44 320.57 137.5 320.22C136.57 319.87 137.05 319.87 136.84 320.67C136.63 321.47 137.84 321.78 138.36 322.5C138.88 323.23 138.81 323.43 138.71 324.23C138.61 325.03 138.95 326.48 139.06 327.17C139.16 327.86 138.71 329.9 138.44 330.56C138.16 331.22 137.96 332.01 137.37 332.01C136.78 332.01 134.21 333.01 134.09 333.04C133.96 333.07 132.74 333.53 131.57 333.51C130.4 333.48 129.86 332.76 128.9 332.76C127.94 332.76 127.32 332.94 126.54 332.6C125.76 332.26 126.57 330.89 126.57 329.98C126.57 329.07 125.35 330.29 124.75 331.15C124.15 332.01 124.59 332.94 124.52 333.69C124.44 334.44 124.34 335.4 123.61 335.79C122.88 336.18 121.77 338.12 121.33 338.46C120.89 338.8 116.43 339.32 115.52 339.32C114.61 339.32 112.58 340.56 112.55 340.87C112.52 341.18 112.69 343.57 112.86 343.98C113.03 344.39 113.34 345.19 113.52 346.33C113.69 347.47 113.38 348.34 113.35 349.3C113.32 350.27 113.21 350.37 112.31 351.1C111.41 351.83 110.96 351.17 110.41 351.48C109.86 351.79 110.24 352.76 110.17 353.38C110.1 354 108.44 354.14 106.61 354.18C104.78 354.21 104.95 353.7 103.77 353.56C102.59 353.42 102.08 354.04 101.45 354.63C100.83 355.22 100.86 356.39 99.3797 357.29C97.8897 358.19 98.8597 356.46 98.8997 355.63C98.9297 354.8 99.5197 355.08 100.42 354.73C101.32 354.38 101.08 353.87 101.42 352.93C101.77 352 104.01 351.75 105.22 351.34C106.43 350.93 106.29 349.3 106.33 348.75C106.36 348.2 104.45 346.76 103.96 346.42C103.47 346.08 102.95 345.95 103.05 345.36C103.15 344.76 102.82 344.56 102.27 344.27C101.73 343.98 98.6697 344.43 97.7297 344.5C96.7997 344.58 97.3397 344.16 96.5897 343.9C95.8397 343.64 94.7197 344.24 93.9697 344.16C93.2197 344.08 92.9797 342.89 92.5997 342.11C92.2097 341.33 90.7597 341.15 90.3997 341.41C90.0397 341.67 89.3097 342.11 88.7697 341.95C88.2297 341.79 88.3597 340.65 88.1197 339.9C87.8897 339.15 87.5197 338.4 86.8197 338.06C86.1197 337.72 85.3697 337.9 84.6197 337.23C83.8697 336.56 82.7997 336.17 81.9997 336.24C81.1997 336.32 79.8997 336.81 79.2497 336.81C78.5997 336.81 76.2697 336.27 75.8997 336.01C75.5397 335.75 68.7397 331 68.2897 330.65C67.8397 330.3 65.5897 327.78 64.4897 328.13C63.3797 328.48 60.8597 327.54 59.8597 327.06C58.8597 326.58 51.0797 330.97 51.0797 330.97C51.0797 330.97 40.9097 336.61 39.9097 337.19C38.9097 337.77 36.0397 338.33 35.6597 338.62C35.2797 338.91 35.5897 339.4 35.5897 340.25C35.5897 341.1 34.9797 340.79 34.6197 340.16C34.2597 339.54 33.4297 338.74 32.4797 338.22C31.5297 337.7 30.5397 337.91 29.4697 338.22C28.3997 338.53 28.5197 338.57 27.9697 338.41C27.4197 338.25 27.2097 338.67 26.9197 339.03C26.6297 339.39 25.7297 339.08 25.2897 338.48C24.8597 337.87 24.7897 337.41 24.5497 337.36C24.3097 337.31 23.1697 337.26 22.5297 337.1C21.8897 336.94 22.1797 337.19 22.1697 337.53C22.1497 337.88 22.3597 338.58 22.3797 339.4C22.3997 340.21 22.1197 339.97 21.6197 340.21C21.1197 340.45 21.0997 340.75 21.0097 341.16C20.9197 341.57 21.0097 342.15 21.3197 342.61C21.6297 343.08 21.1597 343.94 20.8197 344.63C20.4697 345.32 20.3397 348.22 20.2897 348.48C20.2397 348.74 20.2597 349.83 20.6497 350.63C21.0397 351.43 20.8097 352.16 20.8597 353.28C20.9097 354.4 21.4297 354.63 21.8697 355.43C22.3097 356.23 22.0997 356.65 21.6397 357.12C21.1697 357.59 20.4997 358.11 19.8497 358.47C19.1997 358.83 19.1997 357.95 18.6597 357.54C18.1197 357.13 17.9097 357.72 17.4697 358.21C17.0297 358.7 16.7697 358.88 16.6397 358.31C16.5097 357.74 16.7197 356.99 16.4597 356.57C16.1997 356.16 15.6597 356.21 15.3997 356.78C15.1397 357.35 14.7497 357.87 14.4397 357.35C14.1297 356.83 14.4697 354.73 14.4697 353.64C14.4697 352.55 14.7297 352.03 14.0297 351.8C13.3297 351.57 12.4497 350.4 11.9597 349.75C11.4697 349.1 11.1797 349.85 10.8697 350.32C10.5597 350.79 10.1197 350.48 9.64974 350.03C9.17974 349.59 8.71974 348.21 8.01974 347.36C7.31974 346.5 6.95974 347.31 6.79974 347.57C6.63974 347.83 7.23974 348.53 7.65974 349.13C8.06974 349.73 8.19974 351.31 8.17974 352.03C8.14974 352.76 7.44974 357.27 6.92974 358.37C6.40974 359.48 6.44974 358.72 6.02974 357.92C5.61974 357.12 5.47974 358.44 5.36974 359.65C5.26974 360.86 4.63974 362.21 3.94974 362.73C3.25974 363.25 2.49974 362.9 1.73974 362.9C0.97974 362.9 0.0797402 363.49 0.0497402 364.08C0.0197402 364.67 0.73974 365.77 0.73974 365.77C0.73974 365.77 0.91974 369.09 0.91974 369.56C0.91974 370.03 0.52974 370.86 1.20974 370.86C1.87974 370.86 2.32974 370.34 2.37974 371.02C2.42974 371.69 2.06974 372.29 2.06974 373.07C2.06974 373.85 2.01974 375.2 2.63974 375.59C3.25974 375.98 4.83974 378.18 5.46974 378.96C6.08974 379.74 6.81974 380 6.55974 380.88C6.29974 381.76 5.36974 382.44 5.36974 382.77C5.36974 383.1 5.62974 385.23 5.83974 385.62C6.04974 386.01 6.32974 386.58 6.17974 387.05C6.01974 387.52 6.07974 388.32 6.58974 388.58C7.10974 388.84 7.33974 389.18 7.25974 389.69C7.17974 390.21 6.81974 391.27 7.30974 391.43C7.79974 391.59 8.08974 391.4 8.21974 392.1C8.34974 392.8 8.73974 394.37 7.97974 395.45C7.21974 396.52 6.17974 396.69 6.86974 397.21C7.55974 397.73 8.62974 399.22 8.93974 399.6C9.24974 399.98 9.90974 399.74 10.3597 398.8C10.8097 397.87 11.4697 395.86 11.9197 395.69C12.3697 395.52 12.7797 395.72 12.7797 396.28C12.7797 396.84 12.6397 397.21 13.2597 397.28C13.8797 397.35 14.4997 398.32 15.0197 398.77C15.5397 399.22 15.5697 398.77 16.2597 398.25C16.9497 397.73 17.5697 398.11 17.8497 398.42C18.1297 398.73 18.3997 398.9 18.7797 398.59C19.1597 398.28 19.4397 397.48 19.9597 397.66C20.4797 397.83 20.5497 398.52 21.1997 398.04C21.8597 397.56 21.6797 397 22.1697 397.24C22.6497 397.48 23.3097 398 23.5497 397.48C23.7897 396.96 23.8297 395.82 24.1697 395.79C24.5197 395.76 25.8997 396.41 26.2097 396.1C26.5197 395.79 26.7297 394.92 26.7597 394.54C26.7897 394.16 27.5197 393.78 27.8297 393.57C28.1397 393.36 27.8997 392.81 28.3097 392.71C28.7197 392.61 30.1297 392.47 30.5197 392.76C30.9197 393.05 30.4997 393.52 31.3797 393.61C32.2597 393.7 33.5897 394.08 33.8997 393.52C34.2097 392.97 34.0397 392.29 34.9697 391.98C35.8997 391.67 36.5097 391.57 37.0797 391.96C37.6497 392.36 37.7897 392.36 38.2397 392.25C38.6897 392.14 39.1397 392.34 39.3297 392.56C39.5197 392.78 39.7097 392.73 40.7997 392.94C41.8897 393.15 44.9497 394.7 45.0997 394.89C45.2597 395.08 45.2197 395.74 45.6397 395.81C46.0497 395.88 46.7097 396.26 47.0197 396.55C47.3297 396.84 48.7497 398.69 49.0797 398.75C49.4097 398.8 49.8897 398.54 50.1897 398.3C50.4797 398.06 50.9197 397.42 50.9197 397.06C50.9197 396.7 51.3697 396.45 51.5397 396.11C51.7097 395.76 51.7097 395.56 51.5397 395.11C51.3697 394.66 51.7797 394.49 52.0797 394.31C52.3697 394.14 53.4097 393.39 53.5997 393.69C53.7897 393.98 54.1497 394.8 54.8397 395.14C55.5297 395.49 55.5997 395.35 56.0297 395.04C56.4597 394.73 57.2097 394.4 57.5897 394.64C57.9697 394.88 57.9897 395.45 58.3497 395.63C58.7097 395.8 58.9597 395.65 58.9597 396.18C58.9597 396.72 58.8897 398.25 59.3097 398.25C59.7197 398.25 61.9997 396.99 62.2597 396.57C62.5197 396.16 62.6197 395.4 62.5997 394.94C62.5697 394.47 63.1997 394.08 63.5597 394.21C63.9197 394.34 64.2297 394.96 64.8297 395.09C65.4297 395.22 65.6297 394.93 65.7597 394.6C65.8897 394.26 66.1997 394.03 66.8197 393.93C67.4397 393.83 67.7797 393.18 68.1197 392.71C68.4597 392.24 69.3397 392.19 69.7797 392.68C70.2197 393.17 70.5797 394 71.1497 394.73C71.7197 395.46 72.4697 396.16 73.0697 396.21C73.6697 396.26 75.3797 395.56 75.7097 394.86C76.0497 394.16 76.5897 393.02 77.0597 393.8C77.5297 394.58 77.7897 395.38 78.1497 395.46C78.5097 395.54 79.3897 395.59 79.4697 396.03C79.5497 396.47 78.9297 396.94 78.8997 397.51C78.8697 398.08 79.6497 398 80.1997 398.31C80.7397 398.62 82.7297 399.17 83.5297 399.06C84.3297 398.96 85.6397 397.85 85.9497 396.95C86.2597 396.05 85.6697 395.29 86.6797 395.01C87.6797 394.73 88.3397 394.32 88.4397 393.9C88.5397 393.49 88.7197 391.48 89.4797 391.65C90.2397 391.82 90.5197 392.51 91.1397 392.89C91.7597 393.27 92.5597 393.82 93.0397 394.03C93.5197 394.24 94.1097 393.75 94.1497 393.17C94.1797 392.58 94.1197 390.72 94.6997 391.1C95.2897 391.48 96.3597 393.11 96.8797 393.24C97.3997 393.38 97.8497 392.86 98.1197 392.03C98.3997 391.2 99.0197 391.03 99.8797 390.89C100.74 390.75 101.33 391.17 101.54 390.16C101.75 389.16 101.89 388.78 102.44 389.26C102.99 389.74 104.38 389.57 104.55 390.44C104.72 391.3 104.41 391.79 105.14 391.79C105.87 391.79 105.94 392.17 106.7 392.59C107.46 393 108.29 393.04 108.74 392.8C109.19 392.56 109.5 392.21 109.92 392.52C110.33 392.83 111.06 392.69 111.61 392.69C112.16 392.69 112.44 392.93 112.41 393.62C112.38 394.31 113 394.76 113.62 395.31C114.24 395.86 114.62 396.52 114.59 397.49C114.56 398.46 116.06 400.6 116.44 400.77C116.82 400.94 118.01 401.12 118.51 401.65C119.01 402.19 119.67 402.91 120.14 403.07C120.61 403.23 120.99 403.48 120.9 403.93C120.81 404.38 121.16 406.79 120.64 407.41C120.12 408.03 119.58 408.14 119.58 408.71C119.58 409.28 119.61 409.51 120.46 410.53C121.32 411.54 121.08 412.29 122.07 412.45C123.06 412.61 123.47 412.04 123.78 412.58C124.09 413.12 124.38 413.38 125.49 413.38C126.61 413.38 127.41 413.59 127.88 412.99C128.35 412.39 128.79 411.93 129.18 411.49C129.57 411.05 129.75 410.3 130.27 410.56C130.79 410.82 131.64 412.04 131.93 412.38C132.22 412.72 132.76 413.18 133.28 412.98C133.8 412.77 134.19 412.28 134.55 411.45C134.91 410.62 135.33 409.79 135.33 409.12C135.33 408.45 135.3 408.16 135.82 408.24C136.34 408.32 137.61 409.43 138 410.06C138.39 410.68 138.57 411.23 139.43 411.05C140.29 410.87 141.45 410.19 142.13 410.64C142.8 411.08 143.12 411.42 143.53 411.39C143.94 411.36 145.09 410.4 145.37 410.12C145.66 409.83 146.41 407.71 146.49 407.14C146.57 406.57 146.52 403.28 146.57 402.55C146.62 401.82 146.75 401.62 147.24 401.59C147.73 401.56 147.99 400.81 147.99 400.53C147.99 400.24 148.74 400.01 148.9 400.01C149.06 400.01 151.85 400.77 152.47 400.91C153.09 401.05 154.23 401.46 155.17 400.98C156.1 400.5 156.03 399.87 156.86 399.94C157.69 400.01 158.42 400.32 158.87 399.84C159.32 399.36 160.39 397.83 160.67 397.73C160.95 397.63 161.4 397 161.78 398.01C162.16 399.01 162.33 400.4 163.02 400.19C163.71 399.98 164.4 399.08 164.71 398.77C165.02 398.46 166.16 398.04 166.47 397.66C166.78 397.28 166.68 396.59 166.78 396.03C166.88 395.48 166.57 394.65 166.99 394.44C167.4 394.23 168.13 394.13 168.86 394.13C169.59 394.13 169.79 393.71 170.59 394.23C171.39 394.75 172.53 394.51 172.8 394.37C173.08 394.23 173.77 393.61 173.84 393.4C173.91 393.19 174.08 391.88 174.39 391.77C174.7 391.67 175.74 391.18 176.5 391.25C177.26 391.32 178.44 391.28 178.44 390.9C178.44 390.52 178.37 389.59 178.72 389.14C179.07 388.69 178.96 388.1 179.83 389.14C180.7 390.18 181.07 390.32 181.59 390.63C182.11 390.94 182.39 391.7 183.32 391.84C184.25 391.98 184.91 393.78 185.26 394.5C185.61 395.23 185.26 395.85 184.81 396.64C184.36 397.44 184.22 397.99 183.77 398.75C183.32 399.51 183.18 400.27 183.18 400.89C183.18 401.51 184.46 402.93 184.53 403.76C184.6 404.59 183.67 404.69 184.22 405.18C184.77 405.66 185.43 405.6 186.02 405.94C186.61 406.29 186.43 406.7 186.95 407.01C187.47 407.32 187.85 407.25 188.26 406.56C188.67 405.87 189.68 404.69 189.68 405.59C189.68 406.49 189.54 407.49 190.09 407.42C190.64 407.35 192.61 407.11 193.82 407.04C195.03 406.97 195 406.69 195.62 406.49C196.24 406.28 196.42 406.35 197.45 406.52C198.49 406.69 198.52 406.45 199.14 406.21C199.76 405.97 202.25 405.38 202.53 406C202.81 406.62 203.05 408.49 203.64 408.87C204.23 409.25 204.37 409.63 204.16 410.6C203.95 411.57 204.71 412.12 204.78 412.74C204.85 413.36 203.98 414.4 203.19 415.09C202.39 415.78 201.5 415.44 201.43 415.89C201.36 416.34 202.26 416.41 201.71 416.96C201.16 417.51 199.81 418.2 200.05 418.69C200.29 419.17 202.33 422.56 202.78 423.5C203.23 424.43 203.82 425.75 204.44 425.57C205.06 425.4 206.38 424.05 207.1 423.77C207.83 423.49 207.55 423.7 208.48 423.91C209.41 424.12 211.97 424.15 212.53 423.94C213.08 423.73 213.81 423.35 214.02 422.49C214.23 421.63 214.12 420.86 214.92 420.62C215.72 420.38 215.96 420.17 216.1 419.44C216.24 418.71 216.2 418.44 217 418.44C217.8 418.44 218.07 418.92 218.21 418.13C218.35 417.33 219.01 416.92 219.73 416.82C220.46 416.72 220.42 417.3 221.04 417.27C221.66 417.24 222.18 416.51 222.7 415.92C223.22 415.33 223.32 414.74 223.98 415.44C224.64 416.13 225.4 416.13 225.43 417.27C225.46 418.41 225.05 419.07 225.4 419.28C225.75 419.49 226.13 419.21 226.13 420.21C226.13 421.21 225.99 422.49 226.1 422.66C226.2 422.83 227.6 425.37 228.22 425.6C228.84 425.83 229.8 425.73 230.45 425.44C231.1 425.15 231.82 425.05 232.55 425.44C233.28 425.83 234.29 425.8 234.42 426.24C234.55 426.68 234.03 427.82 234.37 428.18C234.71 428.54 236 428.02 236.37 428.54C236.73 429.06 236.84 429.66 236.86 430.38C236.89 431.11 236.29 431.94 236.89 432.79C237.49 433.65 238.34 434.16 238.71 434.55C239.07 434.94 239.9 434.91 240.01 434.42C240.11 433.93 239.8 432.66 239.91 432.22C240.01 431.78 240.84 431.34 241.52 430.46C242.19 429.58 242.64 429.11 242.79 428.26C242.95 427.4 243.02 426.7 243.26 426.26C243.49 425.82 244.06 425.72 243.93 424.55C243.8 423.38 244.6 422.55 244.86 422.16C245.12 421.77 244.52 421.02 245.25 420.76C245.98 420.5 246.7 421.12 246.96 420.06C247.22 419 246.93 418.97 247.76 418.97C248.59 418.97 250.35 419.57 250.82 419.26C251.29 418.95 251.11 418.53 252.25 418.4C253.39 418.27 254.04 418.32 255.54 417.86C257.04 417.39 258.03 417.63 258.21 417.24C258.39 416.85 258.03 416.33 257.98 416C257.93 415.66 258.94 414.08 260.16 414.42C261.38 414.76 261.69 414.37 263.17 414.26C264.65 414.16 264.39 415.95 264.78 416.49C265.17 417.03 265.17 417.5 265.77 417.14C266.37 416.78 268.13 415.51 268.31 414.94C268.49 414.37 268.7 412.97 269.19 412.81C269.68 412.65 270.2 413.12 270.85 413.35C271.5 413.58 272.98 413.64 273.83 413.35C274.69 413.06 275.18 412.6 275.8 412.83C276.42 413.06 278.42 414.67 279.3 414.93C280.18 415.19 281.56 415.32 282 415.53C282.44 415.74 282.7 416.44 282.67 417.01C282.64 417.58 282.72 418.07 283.34 417.66C283.96 417.25 284.51 416.55 285.6 416.34C286.69 416.13 287.23 416.47 287.65 416.96C288.06 417.45 288.32 417.12 289.15 417.35C289.98 417.58 290.37 418.05 290.91 417.56C291.45 417.07 292.34 415.93 292.91 415.69C293.48 415.45 294.44 414.39 294.75 415.28C295.06 416.16 295.09 416.84 295.71 417.07C296.33 417.3 296.57 417.56 296.93 417.33C297.29 417.1 298.15 416.66 298.82 416.66C299.49 416.66 299.78 416.43 300.14 416.27C300.5 416.11 301.49 416.32 302.01 416.5C302.53 416.68 302.92 416.97 303.67 416.97C304.42 416.97 305.2 416.53 305.46 416.22C305.72 415.91 306.76 415.49 306.89 415.47C307.02 415.44 309.64 414.8 310.39 415.31C311.14 415.83 312.18 416.89 312.65 417.07C313.12 417.25 314.15 417.04 314.96 417.04C315.76 417.04 316.1 417.12 316.33 416.73C316.56 416.34 318.09 415.93 318.43 416.16C318.77 416.39 319.62 416.6 319.65 416.19C319.68 415.78 320.09 414.61 320.35 414.22C320.61 413.83 320.84 413.44 321.72 413.83C322.6 414.22 323.17 413.75 323.85 413.75C324.52 413.75 325.69 413.96 325.79 413.78C325.89 413.6 326.08 413.08 326.67 413.05C327.27 413.02 328.15 413.31 328.28 412.82C328.41 412.33 328.38 412.3 328.72 411.78C329.06 411.26 329.39 410.77 329.01 410.28C328.62 409.79 328.18 409.79 328.15 409.24C328.12 408.7 328.23 408.49 329.03 408.49C329.83 408.49 330.59 408.54 330.82 407.92C331.05 407.3 330.82 406.75 331.36 406.7C331.9 406.65 332.09 406.8 332.97 406.99C333.85 407.17 334.99 407.59 335.41 406.96C335.82 406.34 335.98 405.61 336.4 405.46C336.81 405.3 337 405.85 337.72 405.56C338.45 405.27 338.91 405.04 339.77 404.81C340.63 404.58 340.83 404.27 341.79 404.78C342.75 405.3 343.5 406.1 344.23 406.26C344.96 406.42 345.35 406.55 345.68 406C346.02 405.46 346.69 404.63 347.05 405.04C347.41 405.45 347.57 406.18 348.29 406.13C349.02 406.08 349.15 405.35 349.66 405.07C350.18 404.78 352.1 404.6 352.25 404.63C352.41 404.66 354.12 405.8 355 405.64C355.88 405.48 355.88 405.15 356.5 405.46C357.12 405.77 359.92 405.51 360.55 405.49C361.17 405.46 361.38 404.92 362.55 404.92C363.72 404.92 363.61 405.44 365.79 404.74C367.97 404.04 370.25 403.5 370.46 403.39C370.67 403.29 370.62 402.4 370.2 402.02C369.78 401.64 369.53 401.48 370.33 400.44C371.13 399.4 371.73 398.75 371.32 398.29C370.91 397.82 370.23 397.88 370.54 397.33C370.85 396.79 372.46 396.14 372.8 395.57C373.14 395 372.67 393.26 372.85 392.95C373.03 392.64 374.51 391.91 375.03 391.68C375.55 391.45 375.99 391.68 375.81 390.38C375.63 389.08 375.01 385.92 375.01 385.3C375.01 384.68 374.54 382.73 374.52 382.63C374.49 382.53 374.28 380.68 374.04 380.26C373.8 379.85 373 379.4 372.93 379.12C372.86 378.84 373.73 377.98 373.41 377.6C373.1 377.22 372.96 376.74 372.1 376.46C371.24 376.18 369.4 376.53 369.23 375.98C369.06 375.43 369.61 375.01 369.02 375.01C368.43 375.01 367.46 375.25 367.26 374.84C367.05 374.43 366.74 373.56 366.81 372.66C366.88 371.76 367.02 368.2 367.61 367.2C368.2 366.2 369.3 366.16 369.96 365.4C370.62 364.64 370.27 363.77 370.86 363.74C371.45 363.71 371.62 364.43 372.1 364.22C372.58 364.01 373.31 360.62 373.48 360C373.65 359.38 373.2 359.17 372.93 358.72C372.65 358.27 372.45 357.68 373.07 356.89C373.69 356.09 376.15 352.74 376.39 352.53C376.63 352.32 377.5 351.49 377.5 351.04C377.5 350.59 377.88 350.04 378.12 349.41C378.36 348.79 378.33 348.13 377.88 348.06C377.43 347.99 375.67 348.03 375.08 347.68C374.49 347.33 373.8 347.27 374.63 346.88C375.46 346.5 376.53 346.5 376.95 345.91C377.36 345.32 377.78 344.73 378.4 344.77C379.02 344.8 380.09 345.84 380.13 345.01C380.16 344.18 379.85 343.45 380.48 343.11C381.1 342.76 381.45 342.83 381.45 342.25C381.45 341.67 380.83 341.18 381.42 340.76C382.01 340.35 382.73 339.2 383.53 339.45C384.33 339.69 384.88 340.45 385.16 341.08C385.44 341.7 385.75 341.84 386.16 341.49C386.58 341.14 387.09 340.9 387.75 340.9C388.41 340.9 388.68 340.8 388.86 340.17C389.03 339.55 389.27 338.48 389.66 338.37C390.04 338.27 390.35 338.16 391.18 338.47C392.01 338.78 391.73 338.4 392.29 338.23C392.84 338.06 393.17 337.77 394.08 337.72C394.99 337.67 395.35 337.07 395.82 336.76C396.29 336.45 396.88 336.29 397.53 336.66C398.18 337.02 398.46 337.52 399.29 336.82C400.12 336.12 400.4 335 400.77 335.86C401.13 336.72 401.5 337.88 402.17 338.43C402.84 338.97 402.97 338.9 403.49 338.43C404.01 337.96 403.98 337.08 404.61 337.91C405.23 338.74 405.36 339.6 406.35 339.73C407.34 339.86 407.83 340.02 408.48 339.52C409.13 339.03 410.92 337.21 411.33 336.9C411.74 336.59 413.94 335.04 414.53 334.57C415.12 334.1 417.37 332.34 417.64 331.89C417.92 331.44 418.05 330.99 418.52 330.42C418.99 329.85 419.45 328.62 420.04 328.36C420.63 328.1 421.25 328.03 421.61 327.96C421.97 327.89 422.73 326.8 423.02 326.44C423.31 326.08 425.12 322.78 425.54 322.37C425.95 321.96 426.81 321.72 426.99 321.23C427.17 320.74 427.07 320.09 427.74 320.06C428.41 320.03 430.07 319.8 430.51 320.37C430.95 320.94 431 321.2 431.88 321.12C432.76 321.04 433.41 320.52 434.19 320.11C434.97 319.7 435.18 319.67 434.89 319.25C434.6 318.84 434.27 318.86 434.66 318.19C435.05 317.52 435.78 316.76 435.9 316.4C436.03 316.04 436.29 315.36 436.11 315.08C435.93 314.79 435.57 313.52 435.59 313.24C435.62 312.95 436.78 312.67 437.28 312.8C437.77 312.93 437.85 313.47 438.37 313.58C438.89 313.68 439.3 313.04 439.85 312.93C440.39 312.83 440.06 313.27 441.02 313.27C441.98 313.27 442.42 312.98 443.07 312.83C443.72 312.67 445.01 313.14 446.08 313.84C447.14 314.54 447.79 315.4 448.47 315.71C449.14 316.02 449.07 315.74 449.43 315.37C449.79 315.01 449.84 314.8 451.14 314.54C452.44 314.28 452.75 313.74 452.75 313.42C452.75 313.11 453.09 312.82 452.28 312.46C451.48 312.1 450.31 311.81 450.05 311.14C449.79 310.47 448.81 308.62 448.34 308.16C447.87 307.69 447.02 307.23 446.55 306.79C446.08 306.35 444.68 305.13 444.68 305.13C444.68 305.13 443.51 303.16 443.41 302.82C443.31 302.48 442.81 301.96 443.49 301.96C444.17 301.96 444.76 302.82 445.02 301.91C445.28 301 445.12 300.54 445.12 299.99C445.12 299.45 445.59 298.46 445.64 297.66C445.69 296.86 446.76 295.2 447.09 295.14C447.43 295.09 448.02 295.55 448.91 295.89C449.79 296.23 450.49 296.02 450.98 296.41C451.47 296.8 452.22 297.68 452.92 297.81C453.62 297.94 453.85 298.1 453.8 298.69C453.75 299.29 454.58 299.83 455.28 300.12C455.98 300.41 458.5 302.87 459.27 302.32C460.05 301.78 460.33 299.62 461.32 300.82C462.31 302.01 463.84 303 465.18 303.39C466.53 303.78 466.61 304.63 467.36 304.17C468.11 303.7 469.36 302.23 470.11 301.91C470.86 301.6 471.56 301.26 472.34 301.6C473.12 301.94 474.28 303 475.61 303.03C476.93 303.06 478.72 303.32 478.93 302.69C479.14 302.07 478.98 301.37 479.68 301.11C480.38 300.85 480.59 301.03 480.67 300.38C480.75 299.73 480.41 299.06 480.9 299.03C481.39 299 481.99 299.55 482.43 299.55C482.87 299.55 484.12 298.68 484.26 298.12C484.4 297.57 483.43 297.12 484.71 296.49C485.99 295.87 486.68 295.83 486.47 295C486.26 294.17 485.88 293.89 486.71 293.76C487.54 293.63 488.54 293.52 488.89 293C489.24 292.48 489.72 292.03 490.55 292.03C491.38 292.03 492.73 291.86 493.18 291.62C493.63 291.38 494.32 289.82 495.43 289.27C496.54 288.72 496.43 287.44 496.64 286.95C496.85 286.47 497.23 286.15 497.78 286.12C498.33 286.09 498.58 285.88 498.85 285.26C499.13 284.64 500.79 283.7 501.79 283.25C502.79 282.8 503.24 281.8 504.35 281.24C505.46 280.69 506.74 280.31 507.36 280.24C507.98 280.17 508.85 279.83 508.36 280.65C507.88 281.48 506.94 282.03 507.81 282.03C508.67 282.03 508.95 281.58 508.99 282.2C509.02 282.82 509.09 283.38 509.65 283.86C510.2 284.34 511 284.66 510.76 285.04C510.52 285.42 509.76 286.11 509.76 286.87C509.76 287.63 509.93 292.26 510.24 292.68C510.55 293.09 511.45 293.75 511.52 294.27C511.59 294.79 510.93 295.51 511.45 296.21C511.97 296.9 513.46 297.56 513.59 297.73C513.73 297.9 514.35 297.07 514.8 297.14C515.25 297.21 515.63 297.9 515.63 298.45C515.63 299 516.6 299.31 517.08 299.38C517.56 299.45 518.05 300.11 517.94 300.66C517.83 301.21 516.66 302.04 516.66 302.77C516.66 303.5 516.69 303.6 516.14 304.12C515.59 304.64 514.07 305.61 514.1 306.37C514.13 307.13 514.17 307.68 513.89 308.76C513.61 309.83 512.13 310.9 512.78 311.66C513.44 312.42 513.64 312.11 514.13 313.01C514.61 313.91 515.1 316.57 515.31 317.04C515.52 317.51 515.39 318.28 515.41 319.17C515.44 320.05 515.7 320.47 516.06 320.49C516.42 320.52 517.82 319.74 518.11 319.09C518.4 318.44 518.91 317.38 519.12 318.21C519.33 319.04 519.41 319.04 519.95 318.57C520.49 318.1 520.57 317.79 521.61 318.1C522.65 318.41 522.93 317.63 523.22 317.35C523.51 317.06 524.02 317.56 524.46 316.78C524.9 316 524.72 315.77 525.47 315.59C526.22 315.41 526.27 315.43 526.77 316.08C527.26 316.73 527.29 317.07 529.03 317.07C530.77 317.07 531.55 317.67 532.19 318.21C532.84 318.75 533.15 319.66 533.69 319.09C534.23 318.52 534.73 317.92 534.6 317.27C534.47 316.62 533.25 315.64 534.21 314.88C535.17 314.13 536.08 313.12 536.1 313.01C536.13 312.91 537.17 311.83 536.95 311.45C536.73 311.07 536.21 310.97 536.64 310.6C537.07 310.24 537.92 309.91 538.84 309.82C539.76 309.73 539.96 310.03 539.96 310.68C539.96 311.34 540.63 312.13 541.2 312.44C541.77 312.75 542.24 312.8 542.89 312.73C543.55 312.66 543.79 312.63 543.63 311.87C543.47 311.11 543.73 310.78 544.29 310.59C544.84 310.4 545.15 310.07 545.41 309.78C545.67 309.49 545.77 309.05 546.31 309.57C546.85 310.09 547.8 310.35 548.51 310.49C549.22 310.63 550.64 310.65 551.29 311.03C551.95 311.41 551.98 311.96 553.05 311.34C554.12 310.72 554.33 310.13 555.44 309.2C556.55 308.27 557.89 307.3 558.52 306.68C559.14 306.06 559.18 306.3 559.97 306.02C560.77 305.74 560.77 305.71 561.21 304.88C561.66 304.05 562.01 303.46 562.49 303.95C562.97 304.43 563.15 304.75 563.01 305.47C562.87 306.19 562.49 306.89 563.32 306.92C564.15 306.95 565.33 306.78 565.36 307.47C565.39 308.16 565.67 308.85 566.16 309.16C566.64 309.47 565.81 310.65 565.75 311.2C565.68 311.75 566.27 312.34 566.72 313.07C567.17 313.8 567.38 314.42 567.58 313.66C567.79 312.9 568.03 311.79 568.03 311.79C568.03 311.79 569.31 309.27 569.9 309.23C570.49 309.2 570.7 309.44 570.8 309.85C570.9 310.26 571.18 310.54 571.87 310.02C572.56 309.5 572.32 309.09 573.56 309.02C574.8 308.95 575.46 308.95 575.91 308.16C576.36 307.36 576.5 306.53 577.22 306.29C577.95 306.05 579.16 305.18 579.81 304.91C580.47 304.63 580.54 304.11 580.78 303.46C581.02 302.8 581.37 302.04 582.23 301.7C583.09 301.35 583.27 300.84 583.34 299.87C583.41 298.9 583.48 298.14 583.2 297.38C582.92 296.62 581.61 296.72 582.68 296.14C583.75 295.55 584.41 294.34 584.41 293.62C584.41 292.89 584.55 292.03 584.89 291.44C585.24 290.85 587.41 289.23 587.97 288.67C588.52 288.12 588.7 286.7 588.77 286.18C588.84 285.66 589.81 285.07 590.6 285.07C591.4 285.07 591.88 285.31 592.02 284.62C592.16 283.93 592.33 282.44 592.26 281.75C592.19 281.06 592.54 280.3 592.74 279.74C592.95 279.19 592.64 278.46 592.81 278.08C592.98 277.7 594.12 277.11 594.16 276.8C594.19 276.49 593.19 275.14 592.88 274.76C592.57 274.38 591.98 273.31 591.98 272.96C591.98 272.61 591.3 270.14 591.35 269.73C591.4 269.31 591.56 269.19 592.41 268.87C593.27 268.56 593.55 267.83 593.78 267.6C594.01 267.37 594.3 267.39 594.74 267.65C595.18 267.91 595.6 267.83 596.06 267.08C596.53 266.33 596.14 264.95 597.07 264.43C598 263.91 597.95 263.86 597.74 263.24C597.53 262.62 597.48 261.48 597.9 260.93C598.31 260.39 597.93 259.87 598.39 259.11C598.86 258.36 599.32 257.14 599.38 256.52C599.43 255.9 598.84 256.08 598.71 255.07C598.58 254.06 598.84 253.31 599.38 252.71C599.92 252.11 600.03 251.93 600.13 251.15C600.23 250.37 599.72 249.39 600.49 249.23C601.27 249.07 602.38 248.89 603.5 248.17C604.61 247.44 604.33 246.85 605.68 246.95C607.03 247.05 607.99 247.78 608.09 247.11C608.19 246.44 607.86 245.84 607.91 245.19C607.96 244.54 608.79 244.07 609.08 243.69C609.37 243.3 609.57 242.6 609.88 241.98C610.19 241.36 610.45 240.97 610.81 241.51C611.17 242.05 611.72 242.47 612.16 242.47C612.6 242.47 614.88 241.54 615.53 240.86C616.18 240.19 616.83 238.97 617.03 238.45C617.23 237.93 617.21 237.7 618.04 237.59C618.87 237.49 619.65 236.73 620.27 236.76C620.89 236.79 620.58 237.8 621.49 238.13C622.4 238.46 622.45 238 623.02 237.82C623.59 237.64 624.86 237.87 625.28 238.03C625.69 238.19 626.65 237.9 627.2 238.06C627.74 238.22 628.91 238.01 628.6 238.92C628.29 239.83 627.28 240.27 628.24 240.84C629.2 241.41 630.34 241.8 630.76 241.8C631.17 241.8 633.07 242.86 633.46 243.17C633.85 243.48 634.26 244.31 634.68 243.51C635.09 242.71 634.37 241.98 634.86 241.82C635.35 241.66 635.95 242.08 636.88 241.98C637.81 241.88 637.71 241.44 638.44 241.44C639.17 241.44 640.07 241.18 639.68 241.96C639.29 242.74 639.19 243.13 640.02 243.13C640.85 243.13 641.34 242.72 641.37 243.42C641.4 244.12 641.37 244.59 642.54 244.3C643.71 244.01 644.28 244.04 644.82 243.37C645.36 242.7 645.21 242.13 646.25 241.71C647.29 241.3 647.99 240.91 648.4 240.47C648.81 240.03 650.14 239.67 650.24 240.31C650.34 240.96 650.6 241.76 651.1 241.4C651.59 241.04 651.98 240.05 652.55 240.28C653.12 240.51 653.43 241.45 653.69 241.63C653.95 241.81 657.99 241.85 658.06 242.41C658.13 242.96 656.82 243.79 657.47 244.28C658.13 244.76 657.99 245.39 659.48 244.69C660.97 244 662 244.03 662.8 243.93C663.6 243.83 663.46 243.65 664.56 244.52C665.67 245.38 666.57 245.63 666.77 245.07C666.98 244.52 666.36 243.86 667.67 243.86C668.98 243.86 669.61 244.38 670.47 243.72C671.33 243.06 671.61 242.13 671.92 243.03C672.23 243.93 672.37 244.48 673.44 244.21C674.51 243.93 675.55 244.52 676.34 243.66C677.14 242.8 677.58 241.38 678.62 241.48C679.66 241.58 680.52 242.69 681.21 242.59C681.9 242.49 682.7 242 682.8 241.28C682.9 240.55 682.63 239.65 683.56 239.65C684.49 239.65 685.15 239.82 685.46 239.37C685.77 238.92 686.26 238.85 685.84 238.06C685.43 237.26 684.63 236.3 684.63 235.95C684.63 235.6 684.64 231.78 684.61 231.42C684.58 231.06 685.41 229.81 685.96 229.42C686.5 229.03 688.64 227.82 689.5 227.34C690.36 226.86 691.33 225.89 692.09 225.37C692.85 224.85 693.89 224.37 694.89 224.3C695.89 224.23 696.83 224.33 697.34 224.71C697.86 225.09 698.2 225.37 698.65 224.95C699.1 224.54 698.86 224.12 699.72 224.05C700.58 223.98 701.79 223.84 702.38 223.46C702.97 223.08 703.38 223.05 704.49 222.53C705.6 222.01 706.66 220.71 707.59 220.52C708.52 220.34 709.02 220.68 709.51 220.21C710 219.74 710.26 219.46 710.42 218.89C710.58 218.32 710.19 215 710.52 214.46C710.86 213.92 710.91 211.74 711.14 211.04C711.37 210.34 712.05 209.3 712.36 208.68C712.67 208.06 712.7 207.51 712.28 206.63C711.87 205.75 711.61 205.15 712.12 204.45C712.64 203.75 714.27 202.76 715.13 202.51C715.99 202.25 716.5 202.48 717.1 202.22C717.7 201.96 717.75 201.6 718.45 201.73C719.15 201.86 718.97 202.69 719.98 202.79C720.99 202.89 722.16 202.89 722.83 202.89C723.5 202.89 724.2 203.07 724.67 203.33C725.14 203.59 725.6 203.77 725.89 203.59C726.18 203.41 726.43 202.5 726.9 202.45C727.37 202.4 727.13 202.4 727.55 202.79C727.96 203.18 730.51 203.06 731 202.65C731.49 202.24 731.39 201.94 731.39 201.53C731.39 201.13 731.45 200.16 731.75 200.13C732.05 200.1 732.09 200.56 732.76 200.64C733.43 200.72 733.11 200.59 733.94 200.35C734.77 200.12 735.29 200.13 736.03 200.14C736.77 200.15 737.48 199.62 737.86 199.4C738.24 199.18 739.92 199.15 740.54 198.29C741.16 197.43 741.58 197.46 741.92 197.53C742.27 197.6 742.54 197.46 742.82 196.7C743.1 195.94 743.55 194.87 744.34 194.18C745.14 193.49 745.45 192.94 746.07 193.07C746.69 193.21 746.1 194.31 746.93 194.42C747.76 194.52 748.52 194.52 748.9 194.04C749.28 193.56 749.31 193.18 749.94 193.49C750.56 193.8 750.39 194.77 751.53 194.35C752.67 193.94 752.46 193.14 752.67 192.55C752.88 191.96 753.29 190.99 754.02 190.61C754.75 190.23 756.68 189.92 756.58 189.54C756.48 189.16 755.78 188.81 755.75 188.23C755.72 187.64 756.23 186.5 756.23 186.5C756.23 186.5 758.43 185.07 759.07 185.51C759.72 185.95 761.01 185.1 761.38 184.99C761.74 184.89 762.44 184.19 763.12 184.58C763.79 184.97 764.21 185.15 764.78 184.97C765.35 184.79 765.4 184.5 766.41 183.7C767.42 182.9 768.1 183.39 768.3 182.48C768.51 181.57 768.14 180.98 768.87 180.74C769.6 180.51 769.91 181.36 770.48 181.21C771.05 181.05 771 179.99 771.47 179.6C771.94 179.21 773.47 178.85 773.7 178.41C773.93 177.97 773.93 176.83 774.63 176.47C775.33 176.11 777.72 174.86 777.72 174.86C777.72 174.86 777.77 174.52 778.45 174C779.12 173.48 779.38 174.41 780.32 174.93C781.25 175.45 781.41 174.77 782.03 173.74C782.65 172.7 782.6 172.7 783.38 172.08C784.16 171.46 783.9 171.3 784.94 171.15C785.98 170.99 786.6 170.79 788.16 170.06C789.72 169.33 789.2 168.97 789.87 167.93C790.54 166.89 791.69 167.26 792.93 166.94C794.17 166.63 794.43 167.41 795.83 167.25C797.23 167.09 797.49 166.94 798.32 166.42C799.15 165.9 799.36 165.07 800.24 164.09C801.12 163.1 803.4 160.82 803.56 160.67C803.72 160.51 805.01 158.7 805.84 158.44C806.67 158.18 807.86 159.74 809.06 159.17C810.25 158.6 810.98 157.41 811.91 155.95C812.84 154.5 813.57 154.96 814.61 154.65C815.65 154.34 816.11 154.13 816.94 153.77C817.77 153.41 818.55 154.08 818.7 154.81C818.86 155.54 821.66 155.48 822.9 155.43C824.14 155.38 828.35 153.72 829.38 153.15C830.42 152.58 829.99 150.64 830.57 149.61C831.16 148.57 833.41 148.95 834.68 148.95C835.95 148.95 835.82 148.92 836.72 148.36C837.62 147.81 838.31 148.29 839.17 148.29C840.03 148.29 840.62 148.88 841.18 149.22C841.73 149.57 842.67 148.56 843.53 147.63C844.39 146.7 844.19 145.9 844.6 144.86C845.01 143.82 845.36 143.03 845.5 142.16C845.64 141.3 847.19 140.53 847.92 139.74C848.65 138.94 847.82 138.5 847.95 137.63C848.09 136.77 848.61 135.8 849.96 134.76C851.31 133.72 856.39 133.07 856.67 133.03C856.95 133 859.71 133.24 860.78 133.24C861.85 133.24 862.2 133.03 862.75 132.48C863.3 131.93 864.2 132.38 865.03 132.41C865.86 132.44 868.21 133.17 869.25 133.69C870.29 134.21 871.36 134.14 871.95 133.97C872.54 133.8 873.02 133.56 873.61 133.56C874.2 133.56 875.82 133.8 876.2 133.59C876.58 133.38 877.62 132.07 878.41 131.45C879.15 130.73 878.21 130.28 877.9 130.04ZM119.29 363.42C119.01 364.01 118.81 364.91 118.7 365.7C118.6 366.5 118.39 366.08 117.32 366.25C116.25 366.42 116.21 367.08 115.8 368.05C115.39 369.02 115.25 368.88 114.52 368.6C113.79 368.32 113.76 368.32 112.86 368.46C111.96 368.6 112.69 369.22 112.72 370.05C112.75 370.88 112.1 371.5 111.13 372.12C110.16 372.74 109.95 372.74 109.37 372.36C108.78 371.98 109.09 371.39 108.61 371.05C108.13 370.7 108.26 370.39 108.71 369.63C109.16 368.87 108.57 368.28 107.81 367.73C107.05 367.18 106.84 366.55 106.46 366.17C106.08 365.79 104.83 365.65 103.8 365.2C102.76 364.75 101.97 363.99 101.83 363.47C101.69 362.95 102.28 361.74 102.38 361.26C102.48 360.78 102.97 361.02 103.42 361.19C103.87 361.36 104.39 361.92 105.49 362.33C106.6 362.74 107.25 362.71 107.88 362.5C109.95 361.81 113.31 363.19 113.93 363.36C114.55 363.53 115.14 363.46 115.8 362.77C116.46 362.08 116.8 362.7 117.25 362.84C117.7 362.98 117.84 363.08 118.29 362.84C118.73 362.63 119.56 362.83 119.29 363.42ZM143.11 346.65C142.35 346.44 141.66 345.92 141.48 345.23C141.31 344.54 140.03 341.7 140.03 341.05C140.03 340.39 140.58 339.74 140.93 338.56C141.28 337.38 140.86 334.79 140.55 333.68C140.24 332.57 139.69 330.26 139.69 330.26C139.97 329.22 140.62 330.19 140.93 330.23C141.24 330.26 142.45 330.44 143.11 330.44C143.77 330.44 144.35 331.06 145.15 331.48C145.95 331.89 145.98 333.14 145.95 334.11C145.92 335.08 146.78 337.08 147.06 337.95C147.34 338.81 147.86 339.16 148.13 339.85C148.4 340.54 147.89 341.13 147.61 341.89C147.33 342.65 148.27 343.55 148.58 344.21C148.89 344.87 149.1 346.32 148.99 347.05C148.89 347.78 148.92 347.74 148.58 347.67C148.23 347.6 147.44 347.26 146.61 347.08C145.77 346.9 143.87 346.86 143.11 346.65ZM157.6 357.67C157.19 357.8 157.13 357.93 157.21 358.11C157.29 358.29 157.26 358.68 156.9 358.73C156.54 358.78 155.97 358.86 155.66 359.17C155.35 359.48 155.79 360.1 155.66 360.13C155.53 360.16 154.39 360.29 153.56 360.83C152.73 361.37 152.52 361.14 151.54 361.22C150.55 361.3 150.27 361.22 150.06 360.75C149.85 360.28 150.29 359.56 150.27 358.75C150.24 357.95 149.8 357.76 149.47 357.79C149.14 357.82 148.43 358.67 147.94 359.22C147.45 359.76 147.84 360.34 147.73 360.8C147.63 361.27 147.29 361.42 146.77 361.09C146.25 360.76 145.94 360.62 145.24 360.31C144.54 360 144.07 360.15 144.05 359.64C144.02 359.12 144.83 359.04 145.66 358.53C146.49 358.01 146.02 357.65 146 357.1C145.97 356.56 146.23 355.67 146.67 354.84C147.11 354.01 147.94 354.11 148.51 354.04C149.08 353.96 149.55 353.52 149.42 353.03C149.29 352.54 148.3 352.54 147.68 352.36C147.06 352.18 147.14 351.37 146.8 350.86C146.46 350.34 146.88 350.29 147.42 349.82C147.96 349.35 148.15 349.82 148.25 350.13C148.35 350.44 148.77 350.34 148.9 350.18C149.03 350.02 148.98 348.44 148.98 348.44C149.14 348 149.55 348.1 149.65 348.03C149.75 347.95 150.22 347.64 150.53 347.23C150.84 346.82 151.15 346.94 151.7 346.92C152.24 346.89 153.46 346.58 154.29 346.22C155.12 345.86 155.46 345.65 156.05 345.36C156.65 345.07 156.98 345.83 157.04 346.4C157.09 346.97 156.68 347.28 155.85 347.75C155.02 348.22 154.81 348.45 154.68 349.02C154.55 349.59 154.42 349.38 153.62 349.41C152.82 349.44 151.73 349.44 151.1 349.46C150.48 349.49 151.36 350 151.85 350.11C152.34 350.21 153.33 351.25 153.38 351.8C153.43 352.34 153.48 352.79 153.22 352.97C152.96 353.15 151.35 353.64 150.89 353.8C150.42 353.96 150.92 354.37 151.46 354.53C152 354.69 155.56 354.37 156.26 354.37C156.96 354.37 157.19 354.5 157.14 354.71C157.09 354.92 156.13 355.46 156.02 355.67C155.92 355.88 157.26 356.32 157.65 356.6C158.04 356.87 158.02 357.54 157.6 357.67ZM208.14 352.93C207.98 353.37 207.78 354.12 207.7 354.72C207.62 355.32 207.44 355.26 207.16 355.03C206.87 354.8 206.51 354.43 206.12 354.2C205.73 353.97 204.36 354.1 203.76 354.1C203.16 354.1 203.55 353.58 203.53 352.98C203.5 352.38 202.65 352.9 202.21 353.16C201.77 353.42 201.67 354.35 201.38 354.9C201.09 355.44 200.71 355.68 200.21 356.14C199.72 356.61 199.64 356.58 199.35 356.45C199.06 356.32 198.88 356.27 198.96 355.96C199.04 355.65 199.22 354.69 199.25 354.17C199.28 353.65 198.52 353.94 198.01 353.99C197.49 354.04 197.26 354.15 197.23 353.94C197.2 353.73 197.28 353.11 197.59 352.64C197.9 352.17 199.38 352.12 200.05 352.1C200.72 352.07 201.5 351.43 202.15 351.24C202.8 351.06 203.06 350.62 202.72 350.23C202.38 349.84 202.93 349.61 202.85 349.14C202.77 348.67 202.02 348 201.68 347.71C201.34 347.42 201.96 347.11 202.04 346.96C202.35 346.39 203.65 348.9 203.65 348.9C203.65 348.9 204.77 349.03 205.08 349.52C205.39 350.01 205.44 350.53 205.75 351.05C206.06 351.57 206.99 351.26 207.69 351C208.39 350.74 208.55 351 208.81 351.41C209.08 351.84 208.3 352.49 208.14 352.93ZM725.81 74.01C725.14 73.98 723.04 75.69 722.55 75.89C722.07 76.1 721.69 75.86 720.86 75.75C720.03 75.65 719.89 75.99 719.75 76.37C719.61 76.75 719.37 77.2 719.06 77.03C718.75 76.86 718.47 76.2 717.99 76.1C717.51 76 717.61 76.55 717.44 76.96C717.27 77.37 716.3 76.86 716.06 76.3C715.82 75.75 714.33 74.81 713.92 74.81C713.51 74.81 712.12 75.29 711.15 75.36C710.18 75.43 710.46 75.12 709.7 75.67C708.94 76.22 708.8 78.37 708.42 79.2C708.04 80.03 707 80.83 706.38 81.38C705.76 81.93 705.93 82 705.86 82.69C705.79 83.38 705.2 83.38 705.2 83.38C705.2 83.38 700.88 87.81 700.46 88.22C700.05 88.63 698.97 88.29 697.94 87.67C696.9 87.05 694.66 87.22 693.89 87.26C693.13 87.29 692.26 88.4 691.78 88.95C691.3 89.5 689.6 89.23 688.88 89.3C688.15 89.37 687.57 90.2 686.91 90.79C686.25 91.38 685.67 91.34 685.28 91.55C684.9 91.76 684.38 93 684.35 93.56C684.32 94.11 684.97 94.22 685.56 94.39C686.15 94.56 687.53 94.87 688.05 94.7C688.57 94.53 689.09 94.35 689.57 94.35C690.05 94.35 691.02 94.8 691.68 95.56C692.34 96.32 691.51 96.32 691.09 96.49C690.68 96.66 690.81 97.39 691.19 97.63C691.57 97.87 691.81 98.01 691.43 98.11C691.05 98.21 690.08 98.21 689.53 98.25C688.98 98.28 687.82 98.06 687.56 98.32C687.3 98.58 686.63 100.5 686.16 101.59C685.69 102.68 685.12 104.44 684.24 105.38C683.36 106.31 680.19 108.18 679.36 108.8C678.53 109.42 677.18 112.17 676.87 113.05C676.56 113.93 675.78 114.14 675.52 114.14C675.26 114.14 674.12 115.13 673.5 115.64C672.88 116.16 668.54 116.75 666.74 116.75C664.94 116.75 664.29 117.48 663.59 117.89C662.9 118.3 662.83 119.2 662.41 119.86C662 120.52 660.82 120.24 659.75 120.07C658.68 119.9 650.69 118.93 649.72 118.55C648.75 118.17 645.54 117.93 644.53 117.93C643.53 117.93 638.89 118.1 637.37 118.21C635.85 118.31 633.81 118.87 633.57 118.94C633.33 119.01 626.27 120.22 626.1 120.22C625.93 120.22 624.03 120.12 623.37 119.74C622.71 119.36 623.65 119.12 623.47 118.74C623.3 118.36 621.91 118.36 620.88 118.57C619.84 118.78 618.56 117.98 617.73 117.5C616.9 117.02 616.38 117.02 616.17 117.53C615.96 118.05 615.69 118.91 615.24 119.43C614.79 119.95 614.76 119.74 614.89 118.95C615.03 118.15 614.75 117.05 614.68 116.6C614.61 116.15 614.09 115.84 613.3 116.01C612.5 116.18 612.12 116.39 610.98 116.32C609.84 116.25 604.19 113.59 603.67 112.97C603.15 112.35 602.43 111.26 601.65 111C600.87 110.74 600.77 110.69 600.15 109.81C599.53 108.93 598.96 109.29 598.49 109.34C598.02 109.39 597.61 109.91 597.04 109.81C596.47 109.71 594.65 108.93 593.41 108.36C592.17 107.79 589.99 108.72 588.95 108.62C587.91 108.52 587.03 108 585.32 107.22C583.61 106.44 582.99 106.13 581.43 105.4C579.87 104.67 578.32 104.16 577.54 103.69C576.76 103.22 574.9 101.56 574.43 100.84C573.96 100.11 573.13 99.96 572.15 99.96C571.17 99.96 570.33 100.12 569.19 100.58C568.05 101.05 566.08 102.91 565.25 103.48C564.42 104.05 563.07 103.38 562.03 102.91C560.99 102.44 559.49 101.25 559.64 100.26C559.8 99.27 560.52 98.44 560.47 97.61C560.42 96.78 559.07 96.68 558.29 96.42C557.51 96.16 558.24 95.38 558.03 94.24C557.82 93.1 556.16 93.41 555.8 93.05C555.44 92.69 556.11 91.86 555.96 90.82C555.8 89.78 554.77 89.49 554.97 88.8C555.18 88.11 556.84 88.45 558.36 87.69C559.88 86.93 565.21 85.48 566.31 85.48C567.42 85.48 570.11 85.62 570.87 85.89C571.63 86.17 574.33 87.27 575.3 87C576.27 86.72 578.2 85.89 579.45 85.13C580.69 84.37 579.17 84.51 579.17 83.06C579.17 81.61 580.28 82.44 581.38 82.3C582.48 82.16 585.6 82.3 587.47 82.58C589.34 82.86 589.61 82.1 589.89 81.27C590.17 80.44 590.95 77.91 591.41 77.4C592.59 76.09 595.39 76.22 597.11 75.71C598.83 75.2 600.05 74.95 600.88 74.4C601.71 73.85 604.99 73.57 605.93 73.57C606.86 73.57 610.8 73.57 611.99 73.18C613.18 72.79 614.09 72.87 615.18 72.92C616.27 72.97 616.55 72.87 617.07 72.35C617.59 71.83 617.95 71.29 618.52 70.95C619.09 70.61 619.69 71.29 620.21 72.09C620.73 72.89 621.82 72.89 622.34 72.89C622.86 72.89 623.51 72.32 623.84 71.75C624.18 71.18 623.87 70.06 623.97 69.36C624.07 68.66 624.13 68.79 624.98 68.61C625.84 68.43 625.71 69.26 626.54 69.98C627.37 70.71 627.65 70.42 627.84 70.08C628.02 69.74 627.09 68.91 626.85 68.45C626.62 67.98 627.32 67.8 628.67 67.72C630.02 67.64 631.91 68.37 633 68.47C634.09 68.57 634.43 68.08 635.65 67.38C636.87 66.68 637.93 68.83 638.37 68.83C638.81 68.83 639.12 66.83 639.69 66.24C640.26 65.64 641.89 66.03 643.01 66.01C644.13 65.98 645.34 65.13 646.54 64.27C647.73 63.41 649.18 63.67 649.78 63.8C650.38 63.93 654.79 66.5 655.66 66.67C656.52 66.84 656.52 66.53 657.25 66.6C657.98 66.67 658.08 67.43 658.67 67.4C659.26 67.37 661.92 67.23 663.16 67.05C664.4 66.88 664.09 66.19 665.1 65.67C666.1 65.15 666.55 66.08 667.42 66.26C668.28 66.43 668.08 65.84 668.32 65.12C668.56 64.39 669.63 64.32 670.77 63.91C671.91 63.5 672.95 63.08 673.47 62.28C673.99 61.48 676.93 60.38 678.21 60.07C679.49 59.76 681.53 59.79 682.39 59.1C683.25 58.41 683.46 58.41 684.78 58.34C686.09 58.27 687.47 59.86 687.86 59.97C688.25 60.07 690.09 59.97 691.21 59.3C692.32 58.63 694.3 59.28 694.78 59.21C695.26 59.14 696.82 59.31 697.41 59.56C698 59.8 700 60.15 700.69 60.39C701.38 60.63 702.49 59.63 703.14 59.15C703.8 58.67 706.11 59.18 706.56 59.18C707.01 59.18 708.57 59.01 708.88 58.66C709.19 58.31 710.26 57.73 710.85 57.52C711.44 57.31 712.96 58.07 713.79 58.07C714.62 58.07 714.59 58 714.72 57.48C714.86 56.96 715.41 57.34 716.1 57.17C716.79 57 716.51 56.51 716.62 56.31C716.72 56.1 717.38 57.14 717.73 57.35C718.08 57.56 718.56 57.14 718.7 56.49C718.84 55.83 719.25 54.83 719.43 54.55C719.6 54.27 719.84 54.86 719.64 55.28C719.43 55.69 719.4 56.42 719.29 56.73C719.19 57.04 719.91 57.25 720.57 56.97C721.23 56.69 723.09 56.66 724.06 56.8C725.03 56.94 724.99 57.32 724.86 57.7C724.72 58.08 724.31 57.94 723.34 57.63C722.37 57.32 722.37 57.28 721.78 57.28C721.19 57.28 721.37 57.73 721.61 58.14C721.85 58.55 721.44 58.24 720.85 58.24C720.26 58.24 719.81 58.38 719.81 58.48C719.81 58.58 720.12 59.31 720.22 59.52C720.32 59.73 721.81 61.39 722.26 61.7C722.71 62.01 723.19 62.25 722.85 62.32C722.5 62.39 721.57 61.73 720.91 61.14C720.25 60.55 719.04 58.75 718.66 58.34C718.28 57.93 718.11 58.41 717.48 58.62C716.86 58.83 716.89 58.48 716.68 58.31C716.47 58.14 715.57 58.79 715.61 59.38C715.64 59.97 715.64 60.24 715.16 60.42C714.68 60.59 714.61 61.08 714.64 61.56C714.67 62.04 714.67 62.29 713.84 62.63C713.01 62.98 712.87 64.08 712.25 64.43C711.63 64.78 710.94 64.4 710.18 64.36C709.42 64.33 709.32 65.71 709.11 66.3C708.9 66.89 707.14 67.61 706.52 68.1C705.9 68.58 705.77 70.53 705.66 70.89C705.56 71.25 706.26 72.11 706.7 72.52C707.14 72.93 707.82 73.4 708.36 73.45C708.9 73.5 714.14 73.66 715.1 73.58C716.06 73.5 717.02 73.71 718.19 73.97C719.36 74.23 720.5 74.57 721.07 74.33C721.64 74.1 721.67 73.68 722.5 73.37C723.33 73.06 723.67 72.8 724.06 72.36C724.45 71.92 724.63 72.13 725.05 72.46C725.46 72.8 725.93 73.26 726.35 73.63C726.77 73.98 726.49 74.04 725.81 74.01Z" fill="url(#paint0_linear_0_1507)"/>
<defs>
<linearGradient id="paint0_linear_0_1507" x1="86.9996" y1="592.484" x2="549" y2="56.4843" gradientUnits="userSpaceOnUse">
<stop stop-color="#003E61"/>
<stop offset="1" stop-color="#006A99"/>
</linearGradient>
</defs>
</svg>
